<svg width="360" height="360" viewBox="0 0 360 360" fill="none" xmlns="http://www.w3.org/2000/svg">
<rect width="360" height="360" fill="#6A3EA1"/>
<g opacity="0.4" clip-path="url(#clip0_3009_21778)">
<rect x="218.26" y="71.4806" width="129.25" height="195.25" rx="3.625" transform="rotate(20 218.26 71.4806)" fill="url(#paint0_linear_3009_21778)" stroke="url(#paint1_linear_3009_21778)" stroke-width="0.75"/>
<rect x="205.368" y="152.587" width="98" height="6" rx="3" transform="rotate(20 205.368 152.587)" fill="white" fill-opacity="0.1"/>
<rect x="205.562" y="153.004" width="97.35" height="5.35" rx="2.675" transform="rotate(20 205.562 153.004)" stroke="url(#paint2_linear_3009_21778)" stroke-opacity="0.55" stroke-width="0.65"/>
<rect x="197.159" y="175.14" width="98" height="6" rx="3" transform="rotate(20 197.159 175.14)" fill="white" fill-opacity="0.1"/>
<rect x="197.353" y="175.557" width="97.35" height="5.35" rx="2.675" transform="rotate(20 197.353 175.557)" stroke="url(#paint3_linear_3009_21778)" stroke-opacity="0.55" stroke-width="0.65"/>
<rect x="184.846" y="208.969" width="98" height="6" rx="3" transform="rotate(20 184.846 208.969)" fill="white" fill-opacity="0.1"/>
<rect x="185.041" y="209.386" width="97.35" height="5.35" rx="2.675" transform="rotate(20 185.041 209.386)" stroke="url(#paint4_linear_3009_21778)" stroke-opacity="0.55" stroke-width="0.65"/>
<rect x="201.263" y="163.864" width="71" height="6" rx="3" transform="rotate(20 201.263 163.864)" fill="white" fill-opacity="0.1"/>
<rect x="201.458" y="164.28" width="70.35" height="5.35" rx="2.675" transform="rotate(20 201.458 164.28)" stroke="url(#paint5_linear_3009_21778)" stroke-opacity="0.55" stroke-width="0.65"/>
<rect x="188.951" y="197.693" width="71" height="6" rx="3" transform="rotate(20 188.951 197.693)" fill="white" fill-opacity="0.1"/>
<rect x="189.145" y="198.109" width="70.35" height="5.35" rx="2.675" transform="rotate(20 189.145 198.109)" stroke="url(#paint6_linear_3009_21778)" stroke-opacity="0.55" stroke-width="0.65"/>
<rect x="193.055" y="186.416" width="71" height="6" rx="3" transform="rotate(20 193.055 186.416)" fill="white" fill-opacity="0.1"/>
<rect x="193.249" y="186.833" width="70.35" height="5.35" rx="2.675" transform="rotate(20 193.249 186.833)" stroke="url(#paint7_linear_3009_21778)" stroke-opacity="0.55" stroke-width="0.65"/>
<rect x="220.074" y="112.181" width="81" height="6" rx="3" transform="rotate(20 220.074 112.181)" fill="white" fill-opacity="0.1"/>
<rect x="220.269" y="112.597" width="80.35" height="5.35" rx="2.675" transform="rotate(20 220.269 112.597)" stroke="url(#paint8_linear_3009_21778)" stroke-opacity="0.55" stroke-width="0.65"/>
<rect x="215.97" y="123.457" width="98" height="6" rx="3" transform="rotate(20 215.97 123.457)" fill="white" fill-opacity="0.1"/>
<rect x="216.164" y="123.873" width="97.35" height="5.35" rx="2.675" transform="rotate(20 216.164 123.873)" stroke="url(#paint9_linear_3009_21778)" stroke-opacity="0.55" stroke-width="0.65"/>
<rect x="211.866" y="134.733" width="45" height="6" rx="3" transform="rotate(20 211.866 134.733)" fill="white" fill-opacity="0.1"/>
<rect x="212.06" y="135.15" width="44.35" height="5.35" rx="2.675" transform="rotate(20 212.06 135.15)" stroke="url(#paint10_linear_3009_21778)" stroke-opacity="0.55" stroke-width="0.65"/>
<rect x="178.348" y="226.823" width="45" height="6" rx="3" transform="rotate(20 178.348 226.823)" fill="white" fill-opacity="0.1"/>
<rect x="178.542" y="227.24" width="44.35" height="5.35" rx="2.675" transform="rotate(20 178.542 227.24)" stroke="url(#paint11_linear_3009_21778)" stroke-opacity="0.55" stroke-width="0.65"/>
</g>
<g opacity="0.4" clip-path="url(#clip1_3009_21778)">
<rect x="20.4806" y="115.687" width="129.25" height="195.25" rx="3.625" transform="rotate(-20 20.4806 115.687)" fill="url(#paint12_linear_3009_21778)" stroke="url(#paint13_linear_3009_21778)" stroke-width="0.75"/>
<rect x="62.7388" y="186.106" width="98" height="6" rx="3" transform="rotate(-20 62.7388 186.106)" fill="white" fill-opacity="0.1"/>
<rect x="63.1553" y="186.3" width="97.35" height="5.35" rx="2.675" transform="rotate(-20 63.1553 186.3)" stroke="url(#paint14_linear_3009_21778)" stroke-opacity="0.55" stroke-width="0.65"/>
<rect x="70.9471" y="208.658" width="98" height="6" rx="3" transform="rotate(-20 70.9471 208.658)" fill="white" fill-opacity="0.1"/>
<rect x="71.3637" y="208.853" width="97.35" height="5.35" rx="2.675" transform="rotate(-20 71.3637 208.853)" stroke="url(#paint15_linear_3009_21778)" stroke-opacity="0.55" stroke-width="0.65"/>
<rect x="83.2599" y="242.487" width="98" height="6" rx="3" transform="rotate(-20 83.2599 242.487)" fill="white" fill-opacity="0.1"/>
<rect x="83.6764" y="242.681" width="97.35" height="5.35" rx="2.675" transform="rotate(-20 83.6764 242.681)" stroke="url(#paint16_linear_3009_21778)" stroke-opacity="0.55" stroke-width="0.65"/>
<rect x="66.8429" y="197.382" width="71" height="6" rx="3" transform="rotate(-20 66.8429 197.382)" fill="white" fill-opacity="0.1"/>
<rect x="67.2595" y="197.576" width="70.35" height="5.35" rx="2.675" transform="rotate(-20 67.2595 197.576)" stroke="url(#paint17_linear_3009_21778)" stroke-opacity="0.55" stroke-width="0.65"/>
<rect x="79.1556" y="231.211" width="71" height="6" rx="3" transform="rotate(-20 79.1556 231.211)" fill="white" fill-opacity="0.1"/>
<rect x="79.5722" y="231.405" width="70.35" height="5.35" rx="2.675" transform="rotate(-20 79.5722 231.405)" stroke="url(#paint18_linear_3009_21778)" stroke-opacity="0.55" stroke-width="0.65"/>
<rect x="75.0514" y="219.935" width="71" height="6" rx="3" transform="rotate(-20 75.0514 219.935)" fill="white" fill-opacity="0.1"/>
<rect x="75.4679" y="220.129" width="70.35" height="5.35" rx="2.675" transform="rotate(-20 75.4679 220.129)" stroke="url(#paint19_linear_3009_21778)" stroke-opacity="0.55" stroke-width="0.65"/>
<rect x="48.0319" y="145.699" width="81" height="6" rx="3" transform="rotate(-20 48.0319 145.699)" fill="white" fill-opacity="0.1"/>
<rect x="48.4484" y="145.893" width="80.35" height="5.35" rx="2.675" transform="rotate(-20 48.4484 145.893)" stroke="url(#paint20_linear_3009_21778)" stroke-opacity="0.55" stroke-width="0.65"/>
<rect x="52.1361" y="156.975" width="98" height="6" rx="3" transform="rotate(-20 52.1361 156.975)" fill="white" fill-opacity="0.1"/>
<rect x="52.5527" y="157.169" width="97.35" height="5.35" rx="2.675" transform="rotate(-20 52.5527 157.169)" stroke="url(#paint21_linear_3009_21778)" stroke-opacity="0.55" stroke-width="0.65"/>
<rect x="56.2404" y="168.251" width="45" height="6" rx="3" transform="rotate(-20 56.2404 168.251)" fill="white" fill-opacity="0.1"/>
<rect x="56.6569" y="168.446" width="44.35" height="5.35" rx="2.675" transform="rotate(-20 56.6569 168.446)" stroke="url(#paint22_linear_3009_21778)" stroke-opacity="0.55" stroke-width="0.65"/>
<rect x="89.7583" y="260.341" width="45" height="6" rx="3" transform="rotate(-20 89.7583 260.341)" fill="white" fill-opacity="0.1"/>
<rect x="90.1749" y="260.536" width="44.35" height="5.35" rx="2.675" transform="rotate(-20 90.1749 260.536)" stroke="url(#paint23_linear_3009_21778)" stroke-opacity="0.55" stroke-width="0.65"/>
</g>
<rect x="105" y="60" width="150" height="240" rx="4" fill="#6A3EA1"/>
<g clip-path="url(#clip2_3009_21778)">
<rect x="105.375" y="61.375" width="149.25" height="238.25" rx="3.625" fill="url(#paint24_linear_3009_21778)" stroke="url(#paint25_linear_3009_21778)" stroke-width="0.75"/>
<rect x="121" y="84" width="114" height="6" rx="3" fill="white" fill-opacity="0.1"/>
<rect x="121.325" y="84.325" width="113.35" height="5.35" rx="2.675" stroke="url(#paint26_linear_3009_21778)" stroke-opacity="0.55" stroke-width="0.65"/>
<rect x="121" y="257" width="81" height="6" rx="3" fill="white" fill-opacity="0.1"/>
<rect x="121.325" y="257.325" width="80.35" height="5.35" rx="2.675" stroke="url(#paint27_linear_3009_21778)" stroke-opacity="0.55" stroke-width="0.65"/>
<rect x="121" y="96" width="98" height="6" rx="3" fill="white" fill-opacity="0.1"/>
<rect x="121.325" y="96.325" width="97.35" height="5.35" rx="2.675" stroke="url(#paint28_linear_3009_21778)" stroke-opacity="0.55" stroke-width="0.65"/>
<rect x="121" y="269" width="114" height="6" rx="3" fill="white" fill-opacity="0.1"/>
<rect x="121.325" y="269.325" width="113.35" height="5.35" rx="2.675" stroke="url(#paint29_linear_3009_21778)" stroke-opacity="0.55" stroke-width="0.65"/>
</g>
<rect x="128" y="128" width="104" height="104" rx="52" fill="url(#paint30_linear_3009_21778)"/>
<rect x="125" y="125" width="110" height="110" rx="55" stroke="white" stroke-opacity="0.15" stroke-width="6"/>
<path d="M156.667 183.333L170 196.667L203.333 163.333" stroke="url(#paint31_linear_3009_21778)" stroke-width="8" stroke-linecap="round" stroke-linejoin="round"/>
<defs>
<linearGradient id="paint0_linear_3009_21778" x1="283.036" y1="71" x2="283.036" y2="267" gradientUnits="userSpaceOnUse">
<stop stop-color="white" stop-opacity="0.15"/>
<stop offset="1" stop-color="white" stop-opacity="0"/>
</linearGradient>
<linearGradient id="paint1_linear_3009_21778" x1="283.036" y1="71" x2="283.036" y2="267" gradientUnits="userSpaceOnUse">
<stop stop-color="white" stop-opacity="0.25"/>
<stop offset="1" stop-color="white" stop-opacity="0"/>
</linearGradient>
<linearGradient id="paint2_linear_3009_21778" x1="254.368" y1="152.587" x2="254.368" y2="158.587" gradientUnits="userSpaceOnUse">
<stop stop-color="white" stop-opacity="0.5"/>
<stop offset="1" stop-color="white" stop-opacity="0.05"/>
</linearGradient>
<linearGradient id="paint3_linear_3009_21778" x1="246.159" y1="175.14" x2="246.159" y2="181.14" gradientUnits="userSpaceOnUse">
<stop stop-color="white" stop-opacity="0.5"/>
<stop offset="1" stop-color="white" stop-opacity="0.05"/>
</linearGradient>
<linearGradient id="paint4_linear_3009_21778" x1="233.846" y1="208.969" x2="233.846" y2="214.969" gradientUnits="userSpaceOnUse">
<stop stop-color="white" stop-opacity="0.5"/>
<stop offset="1" stop-color="white" stop-opacity="0.05"/>
</linearGradient>
<linearGradient id="paint5_linear_3009_21778" x1="236.763" y1="163.864" x2="236.763" y2="169.864" gradientUnits="userSpaceOnUse">
<stop stop-color="white" stop-opacity="0.5"/>
<stop offset="1" stop-color="white" stop-opacity="0.05"/>
</linearGradient>
<linearGradient id="paint6_linear_3009_21778" x1="224.451" y1="197.693" x2="224.451" y2="203.693" gradientUnits="userSpaceOnUse">
<stop stop-color="white" stop-opacity="0.5"/>
<stop offset="1" stop-color="white" stop-opacity="0.05"/>
</linearGradient>
<linearGradient id="paint7_linear_3009_21778" x1="228.555" y1="186.416" x2="228.555" y2="192.416" gradientUnits="userSpaceOnUse">
<stop stop-color="white" stop-opacity="0.5"/>
<stop offset="1" stop-color="white" stop-opacity="0.05"/>
</linearGradient>
<linearGradient id="paint8_linear_3009_21778" x1="260.574" y1="112.181" x2="260.574" y2="118.181" gradientUnits="userSpaceOnUse">
<stop stop-color="white" stop-opacity="0.5"/>
<stop offset="1" stop-color="white" stop-opacity="0.05"/>
</linearGradient>
<linearGradient id="paint9_linear_3009_21778" x1="264.97" y1="123.457" x2="264.97" y2="129.457" gradientUnits="userSpaceOnUse">
<stop stop-color="white" stop-opacity="0.5"/>
<stop offset="1" stop-color="white" stop-opacity="0.05"/>
</linearGradient>
<linearGradient id="paint10_linear_3009_21778" x1="234.366" y1="134.733" x2="234.366" y2="140.733" gradientUnits="userSpaceOnUse">
<stop stop-color="white" stop-opacity="0.5"/>
<stop offset="1" stop-color="white" stop-opacity="0.05"/>
</linearGradient>
<linearGradient id="paint11_linear_3009_21778" x1="200.848" y1="226.823" x2="200.848" y2="232.823" gradientUnits="userSpaceOnUse">
<stop stop-color="white" stop-opacity="0.5"/>
<stop offset="1" stop-color="white" stop-opacity="0.05"/>
</linearGradient>
<linearGradient id="paint12_linear_3009_21778" x1="85" y1="115.463" x2="85" y2="311.463" gradientUnits="userSpaceOnUse">
<stop stop-color="white" stop-opacity="0.15"/>
<stop offset="1" stop-color="white" stop-opacity="0"/>
</linearGradient>
<linearGradient id="paint13_linear_3009_21778" x1="85" y1="115.463" x2="85" y2="311.463" gradientUnits="userSpaceOnUse">
<stop stop-color="white" stop-opacity="0.25"/>
<stop offset="1" stop-color="white" stop-opacity="0"/>
</linearGradient>
<linearGradient id="paint14_linear_3009_21778" x1="111.739" y1="186.106" x2="111.739" y2="192.106" gradientUnits="userSpaceOnUse">
<stop stop-color="white" stop-opacity="0.5"/>
<stop offset="1" stop-color="white" stop-opacity="0.05"/>
</linearGradient>
<linearGradient id="paint15_linear_3009_21778" x1="119.947" y1="208.658" x2="119.947" y2="214.658" gradientUnits="userSpaceOnUse">
<stop stop-color="white" stop-opacity="0.5"/>
<stop offset="1" stop-color="white" stop-opacity="0.05"/>
</linearGradient>
<linearGradient id="paint16_linear_3009_21778" x1="132.26" y1="242.487" x2="132.26" y2="248.487" gradientUnits="userSpaceOnUse">
<stop stop-color="white" stop-opacity="0.5"/>
<stop offset="1" stop-color="white" stop-opacity="0.05"/>
</linearGradient>
<linearGradient id="paint17_linear_3009_21778" x1="102.343" y1="197.382" x2="102.343" y2="203.382" gradientUnits="userSpaceOnUse">
<stop stop-color="white" stop-opacity="0.5"/>
<stop offset="1" stop-color="white" stop-opacity="0.05"/>
</linearGradient>
<linearGradient id="paint18_linear_3009_21778" x1="114.656" y1="231.211" x2="114.656" y2="237.211" gradientUnits="userSpaceOnUse">
<stop stop-color="white" stop-opacity="0.5"/>
<stop offset="1" stop-color="white" stop-opacity="0.05"/>
</linearGradient>
<linearGradient id="paint19_linear_3009_21778" x1="110.551" y1="219.935" x2="110.551" y2="225.935" gradientUnits="userSpaceOnUse">
<stop stop-color="white" stop-opacity="0.5"/>
<stop offset="1" stop-color="white" stop-opacity="0.05"/>
</linearGradient>
<linearGradient id="paint20_linear_3009_21778" x1="88.5319" y1="145.699" x2="88.5319" y2="151.699" gradientUnits="userSpaceOnUse">
<stop stop-color="white" stop-opacity="0.5"/>
<stop offset="1" stop-color="white" stop-opacity="0.05"/>
</linearGradient>
<linearGradient id="paint21_linear_3009_21778" x1="101.136" y1="156.975" x2="101.136" y2="162.975" gradientUnits="userSpaceOnUse">
<stop stop-color="white" stop-opacity="0.5"/>
<stop offset="1" stop-color="white" stop-opacity="0.05"/>
</linearGradient>
<linearGradient id="paint22_linear_3009_21778" x1="78.7404" y1="168.251" x2="78.7404" y2="174.251" gradientUnits="userSpaceOnUse">
<stop stop-color="white" stop-opacity="0.5"/>
<stop offset="1" stop-color="white" stop-opacity="0.05"/>
</linearGradient>
<linearGradient id="paint23_linear_3009_21778" x1="112.258" y1="260.341" x2="112.258" y2="266.341" gradientUnits="userSpaceOnUse">
<stop stop-color="white" stop-opacity="0.5"/>
<stop offset="1" stop-color="white" stop-opacity="0.05"/>
</linearGradient>
<linearGradient id="paint24_linear_3009_21778" x1="180" y1="61" x2="180" y2="300" gradientUnits="userSpaceOnUse">
<stop stop-color="white" stop-opacity="0.25"/>
<stop offset="1" stop-color="white" stop-opacity="0"/>
</linearGradient>
<linearGradient id="paint25_linear_3009_21778" x1="180" y1="61" x2="180" y2="300" gradientUnits="userSpaceOnUse">
<stop stop-color="white" stop-opacity="0.25"/>
<stop offset="1" stop-color="white" stop-opacity="0"/>
</linearGradient>
<linearGradient id="paint26_linear_3009_21778" x1="178" y1="84" x2="178" y2="90" gradientUnits="userSpaceOnUse">
<stop stop-color="white" stop-opacity="0.5"/>
<stop offset="1" stop-color="white" stop-opacity="0.05"/>
</linearGradient>
<linearGradient id="paint27_linear_3009_21778" x1="161.5" y1="257" x2="161.5" y2="263" gradientUnits="userSpaceOnUse">
<stop stop-color="white" stop-opacity="0.5"/>
<stop offset="1" stop-color="white" stop-opacity="0.05"/>
</linearGradient>
<linearGradient id="paint28_linear_3009_21778" x1="170" y1="96" x2="170" y2="102" gradientUnits="userSpaceOnUse">
<stop stop-color="white" stop-opacity="0.5"/>
<stop offset="1" stop-color="white" stop-opacity="0.05"/>
</linearGradient>
<linearGradient id="paint29_linear_3009_21778" x1="178" y1="269" x2="178" y2="275" gradientUnits="userSpaceOnUse">
<stop stop-color="white" stop-opacity="0.5"/>
<stop offset="1" stop-color="white" stop-opacity="0.05"/>
</linearGradient>
<linearGradient id="paint30_linear_3009_21778" x1="180" y1="128" x2="180" y2="232" gradientUnits="userSpaceOnUse">
<stop stop-color="#FFFD6B"/>
<stop offset="1" stop-color="#A7A526"/>
</linearGradient>
<linearGradient id="paint31_linear_3009_21778" x1="180" y1="163.333" x2="180" y2="196.667" gradientUnits="userSpaceOnUse">
<stop stop-color="#565510" stop-opacity="0.5"/>
<stop offset="1" stop-color="#565510" stop-opacity="0.75"/>
</linearGradient>
<clipPath id="clip0_3009_21778">
<rect width="130" height="196" fill="white" transform="translate(218.036 71) rotate(20)"/>
</clipPath>
<clipPath id="clip1_3009_21778">
<rect width="130" height="196" fill="white" transform="translate(20 115.463) rotate(-20)"/>
</clipPath>
<clipPath id="clip2_3009_21778">
<rect width="150" height="239" fill="white" transform="translate(105 61)"/>
</clipPath>
</defs>
</svg>
