<svg width="280" height="280" viewBox="0 0 280 280" fill="none" xmlns="http://www.w3.org/2000/svg">
<circle opacity="0.25" cx="140" cy="77.7778" r="71.1667" fill="url(#paint0_linear_3051_34087)" stroke="url(#paint1_linear_3051_34087)" stroke-width="0.777778"/>
<circle opacity="0.5" cx="140" cy="77.7778" r="46.2778" fill="url(#paint2_linear_3051_34087)" stroke="url(#paint3_linear_3051_34087)" stroke-width="0.777778"/>
<circle opacity="0.75" cx="140" cy="77.7778" r="24.5" fill="url(#paint4_linear_3051_34087)" stroke="url(#paint5_linear_3051_34087)" stroke-width="0.777778"/>
<path d="M20.6111 84C20.6111 80.7784 23.2227 78.1667 26.4444 78.1667H253.555C256.777 78.1667 259.389 80.7783 259.389 84V279.611H20.6111V84Z" fill="url(#paint6_linear_3051_34087)" stroke="url(#paint7_linear_3051_34087)" stroke-width="0.777778"/>
<path d="M20.6111 84C20.6111 80.7783 23.2227 78.1667 26.4444 78.1667H253.555C256.777 78.1667 259.389 80.7783 259.389 84V102.278H20.6111V84Z" fill="url(#paint8_linear_3051_34087)" stroke="url(#paint9_linear_3051_34087)" stroke-width="0.777778"/>
<g opacity="0.5">
<rect x="20.2222" y="102.667" width="34.2222" height="34.2222" fill="white" fill-opacity="0.01"/>
<rect x="20.2222" y="102.667" width="34.2222" height="34.2222" stroke="url(#paint10_linear_3051_34087)" stroke-width="0.777778"/>
<path d="M34.3287 123.108C33.7977 123.108 33.3234 123.017 32.9058 122.834C32.4907 122.651 32.162 122.397 31.9197 122.072C31.68 121.745 31.5511 121.366 31.533 120.935H32.7472C32.7627 121.17 32.8413 121.373 32.9831 121.546C33.1274 121.716 33.3156 121.848 33.5476 121.94C33.7796 122.033 34.0374 122.08 34.321 122.08C34.6329 122.08 34.9088 122.026 35.1485 121.917C35.3908 121.809 35.5803 121.658 35.7169 121.465C35.8535 121.269 35.9219 121.043 35.9219 120.788C35.9219 120.523 35.8535 120.289 35.7169 120.088C35.5829 119.885 35.3857 119.725 35.1253 119.609C34.8675 119.493 34.5556 119.435 34.1895 119.435H33.5206V118.46H34.1895C34.4834 118.46 34.7412 118.408 34.9629 118.302C35.1872 118.196 35.3625 118.049 35.4888 117.861C35.6151 117.67 35.6782 117.447 35.6782 117.192C35.6782 116.947 35.6228 116.735 35.512 116.554C35.4037 116.371 35.249 116.228 35.048 116.125C34.8495 116.022 34.6149 115.97 34.3442 115.97C34.0864 115.97 33.8454 116.018 33.6211 116.113C33.3994 116.206 33.219 116.34 33.0798 116.515C32.9406 116.688 32.8658 116.896 32.8555 117.138H31.6993C31.7122 116.71 31.8385 116.334 32.0783 116.009C32.3206 115.684 32.6402 115.43 33.0372 115.247C33.4342 115.064 33.875 114.973 34.3597 114.973C34.8675 114.973 35.3057 115.072 35.6744 115.27C36.0456 115.466 36.3317 115.728 36.5328 116.055C36.7365 116.383 36.837 116.741 36.8344 117.13C36.837 117.574 36.7133 117.95 36.4632 118.259C36.2157 118.569 35.8858 118.776 35.4733 118.882V118.944C35.9992 119.024 36.4065 119.232 36.6952 119.57C36.9865 119.908 37.1309 120.327 37.1283 120.827C37.1309 121.263 37.0097 121.653 36.7648 121.999C36.5225 122.344 36.1912 122.616 35.771 122.814C35.3509 123.01 34.8701 123.108 34.3287 123.108ZM41.347 123.131C40.736 123.129 40.214 122.968 39.7809 122.648C39.3478 122.328 39.0166 121.863 38.7871 121.252C38.5577 120.641 38.443 119.905 38.443 119.044C38.443 118.186 38.5577 117.452 38.7871 116.844C39.0192 116.236 39.3517 115.772 39.7848 115.452C40.2204 115.132 40.7412 114.973 41.347 114.973C41.9528 114.973 42.4722 115.134 42.9053 115.456C43.3384 115.776 43.6696 116.24 43.899 116.848C44.1311 117.454 44.2471 118.186 44.2471 119.044C44.2471 119.908 44.1323 120.645 43.9029 121.256C43.6735 121.864 43.3422 122.33 42.9091 122.652C42.4761 122.972 41.9553 123.131 41.347 123.131ZM41.347 122.099C41.8832 122.099 42.3021 121.837 42.6037 121.314C42.9079 120.791 43.06 120.034 43.06 119.044C43.06 118.387 42.9903 117.831 42.8511 117.378C42.7145 116.921 42.5173 116.576 42.2595 116.341C42.0043 116.104 41.7001 115.986 41.347 115.986C40.8133 115.986 40.3944 116.249 40.0903 116.774C39.7861 117.3 39.6327 118.057 39.6301 119.044C39.6301 119.704 39.6984 120.262 39.835 120.719C39.9742 121.172 40.1715 121.516 40.4267 121.751C40.6819 121.983 40.9886 122.099 41.347 122.099Z" fill="url(#paint11_linear_3051_34087)"/>
</g>
<g opacity="0.5">
<rect x="20.2222" y="136.889" width="34.2222" height="34.2222" fill="white" fill-opacity="0.01"/>
<rect x="20.2222" y="136.889" width="34.2222" height="34.2222" stroke="url(#paint12_linear_3051_34087)" stroke-width="0.777778"/>
<path d="M37.7874 157.33C37.4343 157.325 37.0862 157.261 36.7434 157.137C36.4031 157.013 36.0938 156.807 35.8154 156.518C35.5369 156.23 35.314 155.842 35.1464 155.355C34.9814 154.867 34.8989 154.259 34.8989 153.529C34.8989 152.839 34.9672 152.225 35.1039 151.689C35.2431 151.153 35.4429 150.7 35.7032 150.332C35.9636 149.96 36.2781 149.678 36.6467 149.485C37.0154 149.291 37.4291 149.195 37.888 149.195C38.3597 149.195 38.7786 149.288 39.1447 149.473C39.5107 149.659 39.8072 149.915 40.034 150.243C40.2635 150.57 40.4091 150.943 40.471 151.36H39.2916C39.2117 151.03 39.0532 150.761 38.816 150.552C38.5788 150.343 38.2695 150.239 37.888 150.239C37.3079 150.239 36.8555 150.491 36.5307 150.997C36.2085 151.502 36.0461 152.204 36.0435 153.104H36.1015C36.2381 152.88 36.4057 152.689 36.6042 152.532C36.8053 152.372 37.0295 152.25 37.277 152.164C37.5271 152.077 37.79 152.033 38.0658 152.033C38.5247 152.033 38.9397 152.145 39.3109 152.369C39.6847 152.591 39.9825 152.898 40.2042 153.29C40.4259 153.682 40.5367 154.13 40.5367 154.635C40.5367 155.141 40.422 155.598 40.1926 156.008C39.9657 156.418 39.6461 156.743 39.2336 156.982C38.8211 157.22 38.3391 157.336 37.7874 157.33ZM37.7836 156.325C38.0877 156.325 38.3597 156.25 38.5994 156.101C38.8392 155.951 39.0287 155.75 39.1679 155.498C39.3071 155.245 39.3767 154.963 39.3767 154.651C39.3767 154.347 39.3084 154.069 39.1717 153.819C39.0377 153.569 38.8521 153.371 38.6149 153.224C38.3803 153.077 38.1122 153.004 37.8106 153.004C37.5812 153.004 37.3685 153.047 37.1726 153.135C36.9793 153.223 36.8091 153.344 36.6622 153.498C36.5152 153.653 36.3992 153.831 36.3142 154.032C36.2317 154.231 36.1904 154.441 36.1904 154.662C36.1904 154.959 36.2587 155.233 36.3954 155.486C36.5346 155.739 36.7241 155.942 36.9638 156.097C37.2061 156.249 37.4794 156.325 37.7836 156.325Z" fill="url(#paint13_linear_3051_34087)"/>
</g>
<g opacity="0.5">
<rect x="20.2222" y="171.111" width="34.2222" height="34.2222" fill="white" fill-opacity="0.01"/>
<rect x="20.2222" y="171.111" width="34.2222" height="34.2222" stroke="url(#paint14_linear_3051_34087)" stroke-width="0.777778"/>
<path d="M35.2946 183.525V191.444H34.0959V184.724H34.0495L32.1548 185.961V184.817L34.1307 183.525H35.2946ZM40.1939 191.553C39.6628 191.553 39.1885 191.461 38.7709 191.278C38.3558 191.095 38.0272 190.841 37.7848 190.516C37.5451 190.189 37.4162 189.81 37.3982 189.38H38.6123C38.6278 189.614 38.7064 189.818 38.8482 189.991C38.9926 190.161 39.1808 190.292 39.4128 190.385C39.6448 190.478 39.9026 190.524 40.1861 190.524C40.498 190.524 40.7739 190.47 41.0136 190.362C41.2559 190.253 41.4454 190.103 41.582 189.909C41.7187 189.713 41.787 189.488 41.787 189.233C41.787 188.967 41.7187 188.734 41.582 188.533C41.448 188.329 41.2508 188.169 40.9904 188.053C40.7326 187.937 40.4207 187.879 40.0547 187.879H39.3857V186.905H40.0547C40.3485 186.905 40.6063 186.852 40.828 186.746C41.0523 186.641 41.2276 186.494 41.3539 186.305C41.4802 186.115 41.5434 185.892 41.5434 185.637C41.5434 185.392 41.4879 185.179 41.3771 184.998C41.2688 184.815 41.1142 184.672 40.9131 184.569C40.7146 184.466 40.48 184.415 40.2093 184.415C39.9515 184.415 39.7105 184.462 39.4862 184.558C39.2645 184.65 39.0841 184.785 38.9449 184.96C38.8057 185.133 38.7309 185.34 38.7206 185.582H37.5644C37.5773 185.154 37.7036 184.778 37.9434 184.453C38.1857 184.128 38.5054 183.875 38.9023 183.692C39.2993 183.508 39.7402 183.417 40.2248 183.417C40.7326 183.417 41.1709 183.516 41.5395 183.715C41.9107 183.911 42.1969 184.172 42.3979 184.5C42.6016 184.827 42.7021 185.185 42.6995 185.575C42.7021 186.018 42.5784 186.394 42.3283 186.704C42.0809 187.013 41.7509 187.221 41.3384 187.326V187.388C41.8643 187.468 42.2716 187.677 42.5603 188.015C42.8516 188.352 42.996 188.771 42.9934 189.271C42.996 189.707 42.8748 190.098 42.6299 190.443C42.3876 190.788 42.0564 191.06 41.6362 191.259C41.216 191.455 40.7352 191.553 40.1939 191.553Z" fill="url(#paint15_linear_3051_34087)"/>
</g>
<g opacity="0.5">
<rect x="20.2222" y="205.333" width="34.2222" height="34.2222" fill="white" fill-opacity="0.01"/>
<rect x="20.2222" y="205.333" width="34.2222" height="34.2222" stroke="url(#paint16_linear_3051_34087)" stroke-width="0.777778"/>
<path d="M31.2418 225.667V224.801L33.9215 222.024C34.2077 221.723 34.4436 221.458 34.6292 221.231C34.8173 221.002 34.9578 220.784 35.0506 220.578C35.1434 220.372 35.1898 220.153 35.1898 219.921C35.1898 219.658 35.128 219.431 35.0042 219.24C34.8805 219.047 34.7116 218.898 34.4977 218.795C34.2837 218.69 34.0427 218.637 33.7746 218.637C33.491 218.637 33.2436 218.695 33.0322 218.811C32.8208 218.927 32.6584 219.091 32.545 219.302C32.4315 219.513 32.3748 219.761 32.3748 220.044H31.2341C31.2341 219.562 31.345 219.141 31.5667 218.78C31.7884 218.419 32.0925 218.139 32.4792 217.941C32.8659 217.74 33.3054 217.639 33.7978 217.639C34.2953 217.639 34.7336 217.738 35.1125 217.937C35.494 218.133 35.7918 218.401 36.0057 218.741C36.2197 219.079 36.3267 219.46 36.3267 219.886C36.3267 220.18 36.2713 220.467 36.1604 220.748C36.0521 221.029 35.8627 221.342 35.592 221.688C35.3213 222.031 34.9449 222.447 34.4629 222.937L32.8891 224.584V224.642H36.4543V225.667H31.2418ZM40.6768 225.798C40.0659 225.796 39.5439 225.634 39.1108 225.315C38.6777 224.995 38.3464 224.53 38.117 223.919C37.8876 223.308 37.7729 222.572 37.7729 221.711C37.7729 220.853 37.8876 220.119 38.117 219.511C38.349 218.902 38.6816 218.438 39.1146 218.119C39.5503 217.799 40.071 217.639 40.6768 217.639C41.2826 217.639 41.8021 217.8 42.2351 218.123C42.6682 218.442 42.9995 218.906 43.2289 219.515C43.4609 220.12 43.5769 220.853 43.5769 221.711C43.5769 222.575 43.4622 223.312 43.2328 223.923C43.0033 224.531 42.6721 224.996 42.239 225.319C41.8059 225.638 41.2852 225.798 40.6768 225.798ZM40.6768 224.766C41.213 224.766 41.6319 224.504 41.9335 223.981C42.2377 223.457 42.3898 222.701 42.3898 221.711C42.3898 221.054 42.3202 220.498 42.181 220.044C42.0444 219.588 41.8472 219.243 41.5894 219.008C41.3342 218.771 41.03 218.652 40.6768 218.652C40.1432 218.652 39.7243 218.915 39.4201 219.441C39.1159 219.967 38.9625 220.724 38.96 221.711C38.96 222.371 39.0283 222.929 39.1649 223.385C39.3041 223.839 39.5013 224.183 39.7565 224.418C40.0117 224.65 40.3185 224.766 40.6768 224.766Z" fill="url(#paint17_linear_3051_34087)"/>
</g>
<g opacity="0.5">
<rect x="20.2222" y="239.556" width="34.2222" height="34.2222" fill="white" fill-opacity="0.01"/>
<rect x="20.2222" y="239.556" width="34.2222" height="34.2222" stroke="url(#paint18_linear_3051_34087)" stroke-width="0.777778"/>
<path d="M31.8807 259.889V259.023L34.5604 256.246C34.8466 255.945 35.0824 255.681 35.268 255.454C35.4562 255.224 35.5967 255.006 35.6895 254.8C35.7823 254.594 35.8287 254.375 35.8287 254.143C35.8287 253.88 35.7669 253.653 35.6431 253.462C35.5194 253.269 35.3505 253.121 35.1366 253.018C34.9226 252.912 34.6816 252.859 34.4135 252.859C34.1299 252.859 33.8824 252.917 33.6711 253.033C33.4597 253.149 33.2973 253.313 33.1838 253.524C33.0704 253.736 33.0137 253.983 33.0137 254.267H31.873C31.873 253.785 31.9839 253.363 32.2055 253.002C32.4272 252.641 32.7314 252.362 33.1181 252.163C33.5048 251.962 33.9443 251.861 34.4367 251.861C34.9342 251.861 35.3725 251.961 35.7514 252.159C36.1329 252.355 36.4307 252.623 36.6446 252.963C36.8586 253.301 36.9656 253.683 36.9656 254.108C36.9656 254.402 36.9101 254.689 36.7993 254.97C36.691 255.251 36.5016 255.565 36.2309 255.91C35.9602 256.253 35.5838 256.669 35.1018 257.159L33.528 258.806V258.864H37.0932V259.889H31.8807ZM38.8255 259.889L42.2824 253.052V252.994H38.2841V251.97H43.5198V253.029L40.0745 259.889H38.8255Z" fill="url(#paint19_linear_3051_34087)"/>
</g>
<g opacity="0.5">
<rect x="54.4443" y="102.667" width="34.2222" height="34.2222" fill="white" fill-opacity="0.01"/>
<rect x="54.4443" y="102.667" width="34.2222" height="34.2222" stroke="url(#paint20_linear_3051_34087)" stroke-width="0.777778"/>
<path d="M69.2693 123.108C68.7383 123.108 68.264 123.017 67.8463 122.834C67.4313 122.651 67.1026 122.397 66.8603 122.072C66.6206 121.745 66.4917 121.366 66.4736 120.935H67.6878C67.7033 121.17 67.7819 121.373 67.9237 121.546C68.068 121.716 68.2562 121.848 68.4882 121.94C68.7202 122.033 68.978 122.08 69.2616 122.08C69.5735 122.08 69.8493 122.026 70.0891 121.917C70.3314 121.809 70.5209 121.658 70.6575 121.465C70.7941 121.269 70.8624 121.043 70.8624 120.788C70.8624 120.523 70.7941 120.289 70.6575 120.088C70.5235 119.885 70.3262 119.725 70.0659 119.609C69.8081 119.493 69.4962 119.435 69.1301 119.435H68.4612V118.46H69.1301C69.424 118.46 69.6818 118.408 69.9035 118.302C70.1278 118.196 70.303 118.049 70.4294 117.861C70.5557 117.67 70.6188 117.447 70.6188 117.192C70.6188 116.947 70.5634 116.735 70.4526 116.554C70.3443 116.371 70.1896 116.228 69.9885 116.125C69.7901 116.022 69.5555 115.97 69.2848 115.97C69.027 115.97 68.786 116.018 68.5617 116.113C68.34 116.206 68.1596 116.34 68.0203 116.515C67.8811 116.688 67.8064 116.896 67.7961 117.138H66.6399C66.6528 116.71 66.7791 116.334 67.0189 116.009C67.2612 115.684 67.5808 115.43 67.9778 115.247C68.3748 115.064 68.8156 114.973 69.3003 114.973C69.8081 114.973 70.2463 115.072 70.615 115.27C70.9862 115.466 71.2723 115.728 71.4734 116.055C71.677 116.383 71.7776 116.741 71.775 117.13C71.7776 117.574 71.6538 117.95 71.4038 118.259C71.1563 118.569 70.8264 118.776 70.4139 118.882V118.944C70.9398 119.024 71.3471 119.232 71.6358 119.57C71.9271 119.908 72.0715 120.327 72.0689 120.827C72.0715 121.263 71.9503 121.653 71.7054 121.999C71.4631 122.344 71.1318 122.616 70.7116 122.814C70.2914 123.01 69.8107 123.108 69.2693 123.108ZM76.535 115.081V123H75.3363V116.28H75.2899L73.3952 117.517V116.372L75.3711 115.081H76.535Z" fill="url(#paint21_linear_3051_34087)"/>
</g>
<g opacity="0.5">
<rect x="54.4443" y="136.889" width="34.2222" height="34.2222" fill="white" fill-opacity="0.01"/>
<rect x="54.4443" y="136.889" width="34.2222" height="34.2222" stroke="url(#paint22_linear_3051_34087)" stroke-width="0.777778"/>
<path d="M69.82 157.222L73.2769 150.386V150.328H69.2787V149.303H74.5143V150.363L71.069 157.222H69.82Z" fill="url(#paint23_linear_3051_34087)"/>
</g>
<g opacity="0.5">
<rect x="54.4443" y="171.111" width="34.2222" height="34.2222" fill="white" fill-opacity="0.01"/>
<rect x="54.4443" y="171.111" width="34.2222" height="34.2222" stroke="url(#paint24_linear_3051_34087)" stroke-width="0.777778"/>
<path d="M69.4636 183.525V191.444H68.2649V184.724H68.2185L66.3238 185.961V184.817L68.2997 183.525H69.4636ZM71.4396 189.898V188.931L74.8617 183.525H75.6234V184.948H75.1401L72.6924 188.823V188.885H77.3828V189.898H71.4396ZM75.1942 191.444V189.604L75.202 189.163V183.525H76.3349V191.444H75.1942Z" fill="url(#paint25_linear_3051_34087)"/>
</g>
<g opacity="0.5">
<rect x="54.4443" y="205.333" width="34.2222" height="34.2222" fill="white" fill-opacity="0.01"/>
<rect x="54.4443" y="205.333" width="34.2222" height="34.2222" stroke="url(#paint26_linear_3051_34087)" stroke-width="0.777778"/>
<path d="M66.1824 225.667V224.801L68.8621 222.024C69.1483 221.723 69.3841 221.458 69.5698 221.231C69.7579 221.002 69.8984 220.784 69.9912 220.578C70.084 220.372 70.1304 220.153 70.1304 219.921C70.1304 219.658 70.0686 219.431 69.9448 219.24C69.8211 219.047 69.6522 218.898 69.4383 218.795C69.2243 218.69 68.9833 218.637 68.7152 218.637C68.4316 218.637 68.1841 218.695 67.9728 218.811C67.7614 218.927 67.599 219.091 67.4855 219.302C67.3721 219.513 67.3154 219.761 67.3154 220.044H66.1747C66.1747 219.562 66.2856 219.141 66.5072 218.78C66.7289 218.419 67.0331 218.139 67.4198 217.941C67.8065 217.74 68.246 217.639 68.7384 217.639C69.2359 217.639 69.6742 217.738 70.0531 217.937C70.4346 218.133 70.7324 218.401 70.9463 218.741C71.1603 219.079 71.2673 219.46 71.2673 219.886C71.2673 220.18 71.2118 220.467 71.101 220.748C70.9927 221.029 70.8033 221.342 70.5326 221.688C70.2619 222.031 69.8855 222.447 69.4035 222.937L67.8297 224.584V224.642H71.3949V225.667H66.1824ZM75.8649 217.747V225.667H74.6662V218.946H74.6198L72.7251 220.184V219.039L74.701 217.747H75.8649Z" fill="url(#paint27_linear_3051_34087)"/>
</g>
<g opacity="0.5">
<rect x="54.4443" y="239.556" width="34.2222" height="34.2222" fill="white" fill-opacity="0.01"/>
<rect x="54.4443" y="239.556" width="34.2222" height="34.2222" stroke="url(#paint28_linear_3051_34087)" stroke-width="0.777778"/>
<path d="M65.5385 259.889V259.023L68.2181 256.246C68.5043 255.945 68.7402 255.681 68.9258 255.454C69.1139 255.224 69.2544 255.006 69.3472 254.8C69.44 254.594 69.4864 254.375 69.4864 254.143C69.4864 253.88 69.4246 253.653 69.3008 253.462C69.1771 253.269 69.0083 253.121 68.7943 253.018C68.5803 252.912 68.3393 252.859 68.0712 252.859C67.7876 252.859 67.5402 252.917 67.3288 253.033C67.1174 253.149 66.955 253.313 66.8416 253.524C66.7281 253.736 66.6714 253.983 66.6714 254.267H65.5307C65.5307 253.785 65.6416 253.363 65.8633 253.002C66.085 252.641 66.3891 252.362 66.7758 252.163C67.1625 251.962 67.602 251.861 68.0944 251.861C68.5919 251.861 69.0302 251.961 69.4091 252.159C69.7906 252.355 70.0884 252.623 70.3023 252.963C70.5163 253.301 70.6233 253.683 70.6233 254.108C70.6233 254.402 70.5679 254.689 70.457 254.97C70.3487 255.251 70.1593 255.565 69.8886 255.91C69.6179 256.253 69.2415 256.669 68.7595 257.159L67.1857 258.806V258.864H70.7509V259.889H65.5385ZM74.8922 259.997C74.338 259.997 73.8482 259.902 73.4228 259.711C73.0001 259.52 72.6688 259.257 72.4291 258.922C72.1893 258.587 72.0708 258.206 72.0733 257.778C72.0708 257.442 72.1391 257.134 72.2783 256.853C72.4201 256.57 72.6121 256.334 72.8544 256.146C73.0967 255.955 73.3674 255.834 73.6664 255.782V255.736C73.272 255.641 72.9562 255.429 72.7191 255.102C72.4819 254.774 72.3646 254.398 72.3672 253.973C72.3646 253.568 72.4716 253.207 72.6882 252.89C72.9073 252.57 73.2076 252.319 73.5891 252.136C73.9706 251.953 74.405 251.861 74.8922 251.861C75.3743 251.861 75.8048 251.954 76.1837 252.14C76.5653 252.323 76.8656 252.574 77.0847 252.894C77.3038 253.211 77.4147 253.571 77.4172 253.973C77.4147 254.398 77.2935 254.774 77.0538 255.102C76.814 255.429 76.5021 255.641 76.118 255.736V255.782C76.4145 255.834 76.6813 255.955 76.9184 256.146C77.1582 256.334 77.3489 256.57 77.4907 256.853C77.6351 257.134 77.7085 257.442 77.7111 257.778C77.7085 258.206 77.5874 258.587 77.3476 258.922C77.1079 259.257 76.7754 259.52 76.35 259.711C75.9272 259.902 75.4413 259.997 74.8922 259.997ZM74.8922 259.019C75.2196 259.019 75.5032 258.965 75.7429 258.856C75.9827 258.746 76.1683 258.592 76.2997 258.396C76.4312 258.198 76.4982 257.966 76.5008 257.7C76.4982 257.424 76.4261 257.181 76.2843 256.969C76.1451 256.758 75.9556 256.592 75.7159 256.471C75.4761 256.349 75.2016 256.289 74.8922 256.289C74.5803 256.289 74.3032 256.349 74.0609 256.471C73.8185 256.592 73.6278 256.758 73.4886 256.969C73.3494 257.181 73.2811 257.424 73.2836 257.7C73.2811 257.966 73.3442 258.198 73.4731 258.396C73.6046 258.592 73.7915 258.746 74.0338 258.856C74.2761 258.965 74.5623 259.019 74.8922 259.019ZM74.8922 255.334C75.1552 255.334 75.3885 255.281 75.5921 255.175C75.7958 255.07 75.9556 254.923 76.0716 254.734C76.1902 254.546 76.2508 254.326 76.2533 254.073C76.2508 253.826 76.1915 253.609 76.0755 253.424C75.962 253.238 75.8035 253.095 75.5998 252.994C75.3962 252.891 75.1603 252.84 74.8922 252.84C74.619 252.84 74.3792 252.891 74.173 252.994C73.9693 253.095 73.8108 253.238 73.6974 253.424C73.584 253.609 73.5285 253.826 73.5311 254.073C73.5285 254.326 73.5852 254.546 73.7013 254.734C73.8173 254.923 73.9771 255.07 74.1807 255.175C74.387 255.281 74.6241 255.334 74.8922 255.334Z" fill="url(#paint29_linear_3051_34087)"/>
</g>
<g opacity="0.5">
<rect x="88.6665" y="102.667" width="34.2222" height="34.2222" fill="white" fill-opacity="0.01"/>
<rect x="88.6665" y="102.667" width="34.2222" height="34.2222" stroke="url(#paint30_linear_3051_34087)" stroke-width="0.777778"/>
<path d="M107.637 115.081V123H106.439V116.28H106.392L104.497 117.517V116.372L106.473 115.081H107.637Z" fill="url(#paint31_linear_3051_34087)"/>
</g>
<g opacity="0.5">
<rect x="88.6665" y="136.889" width="34.2222" height="34.2222" fill="white" fill-opacity="0.01"/>
<rect x="88.6665" y="136.889" width="34.2222" height="34.2222" stroke="url(#paint32_linear_3051_34087)" stroke-width="0.777778"/>
<path d="M106.164 157.33C105.61 157.33 105.12 157.235 104.695 157.044C104.272 156.854 103.941 156.591 103.701 156.256C103.461 155.92 103.343 155.539 103.345 155.111C103.343 154.776 103.411 154.468 103.55 154.187C103.692 153.903 103.884 153.667 104.126 153.479C104.369 153.288 104.639 153.167 104.938 153.116V153.069C104.544 152.974 104.228 152.763 103.991 152.435C103.754 152.108 103.636 151.731 103.639 151.306C103.636 150.901 103.743 150.54 103.96 150.223C104.179 149.904 104.479 149.652 104.861 149.469C105.243 149.286 105.677 149.195 106.164 149.195C106.646 149.195 107.077 149.288 107.456 149.473C107.837 149.656 108.137 149.908 108.357 150.227C108.576 150.544 108.687 150.904 108.689 151.306C108.687 151.731 108.565 152.108 108.326 152.435C108.086 152.763 107.774 152.974 107.39 153.069V153.116C107.686 153.167 107.953 153.288 108.19 153.479C108.43 153.667 108.621 153.903 108.763 154.187C108.907 154.468 108.98 154.776 108.983 155.111C108.98 155.539 108.859 155.92 108.62 156.256C108.38 156.591 108.047 156.854 107.622 157.044C107.199 157.235 106.713 157.33 106.164 157.33ZM106.164 156.352C106.491 156.352 106.775 156.298 107.015 156.19C107.255 156.079 107.44 155.926 107.572 155.73C107.703 155.531 107.77 155.299 107.773 155.034C107.77 154.758 107.698 154.514 107.556 154.303C107.417 154.091 107.227 153.925 106.988 153.804C106.748 153.683 106.473 153.622 106.164 153.622C105.852 153.622 105.575 153.683 105.333 153.804C105.09 153.925 104.9 154.091 104.76 154.303C104.621 154.514 104.553 154.758 104.556 155.034C104.553 155.299 104.616 155.531 104.745 155.73C104.876 155.926 105.063 156.079 105.306 156.19C105.548 156.298 105.834 156.352 106.164 156.352ZM106.164 152.667C106.427 152.667 106.66 152.614 106.864 152.509C107.068 152.403 107.227 152.256 107.343 152.068C107.462 151.88 107.523 151.659 107.525 151.407C107.523 151.159 107.463 150.943 107.347 150.757C107.234 150.571 107.075 150.428 106.872 150.328C106.668 150.225 106.432 150.173 106.164 150.173C105.891 150.173 105.651 150.225 105.445 150.328C105.241 150.428 105.083 150.571 104.969 150.757C104.856 150.943 104.8 151.159 104.803 151.407C104.8 151.659 104.857 151.88 104.973 152.068C105.089 152.256 105.249 152.403 105.453 152.509C105.659 152.614 105.896 152.667 106.164 152.667Z" fill="url(#paint33_linear_3051_34087)"/>
</g>
<g opacity="0.5">
<rect x="88.6665" y="171.111" width="34.2222" height="34.2222" fill="white" fill-opacity="0.01"/>
<rect x="88.6665" y="171.111" width="34.2222" height="34.2222" stroke="url(#paint34_linear_3051_34087)" stroke-width="0.777778"/>
<path d="M103.372 183.525V191.444H102.173V184.724H102.127L100.232 185.961V184.817L102.208 183.525H103.372ZM108.128 191.553C107.643 191.553 107.208 191.46 106.821 191.274C106.437 191.086 106.13 190.828 105.901 190.501C105.671 190.174 105.549 189.8 105.533 189.38H106.693C106.722 189.72 106.873 190 107.146 190.219C107.419 190.438 107.747 190.547 108.128 190.547C108.432 190.547 108.702 190.478 108.936 190.339C109.173 190.197 109.359 190.002 109.493 189.755C109.63 189.507 109.698 189.225 109.698 188.908C109.698 188.586 109.628 188.298 109.489 188.046C109.35 187.793 109.158 187.594 108.913 187.45C108.671 187.306 108.392 187.232 108.078 187.23C107.838 187.23 107.597 187.271 107.355 187.353C107.112 187.436 106.916 187.544 106.767 187.678L105.673 187.516L106.117 183.525H110.471V184.55H107.111L106.86 186.766H106.906C107.061 186.616 107.266 186.491 107.521 186.391C107.779 186.29 108.055 186.24 108.348 186.24C108.831 186.24 109.26 186.354 109.636 186.584C110.015 186.813 110.313 187.127 110.529 187.524C110.748 187.918 110.857 188.372 110.854 188.885C110.857 189.398 110.741 189.855 110.506 190.257C110.274 190.659 109.952 190.977 109.539 191.209C109.13 191.438 108.659 191.553 108.128 191.553Z" fill="url(#paint35_linear_3051_34087)"/>
</g>
<g opacity="0.5">
<rect x="88.6665" y="205.333" width="34.2222" height="34.2222" fill="white" fill-opacity="0.01"/>
<rect x="88.6665" y="205.333" width="34.2222" height="34.2222" stroke="url(#paint36_linear_3051_34087)" stroke-width="0.777778"/>
<path d="M99.8616 225.667V224.801L102.541 222.024C102.827 221.723 103.063 221.458 103.249 221.231C103.437 221.002 103.578 220.784 103.67 220.578C103.763 220.372 103.81 220.153 103.81 219.921C103.81 219.658 103.748 219.431 103.624 219.24C103.5 219.047 103.331 218.898 103.117 218.795C102.904 218.69 102.662 218.637 102.394 218.637C102.111 218.637 101.863 218.695 101.652 218.811C101.441 218.927 101.278 219.091 101.165 219.302C101.051 219.513 100.995 219.761 100.995 220.044H99.8539C99.8539 219.562 99.9648 219.141 100.186 218.78C100.408 218.419 100.712 218.139 101.099 217.941C101.486 217.74 101.925 217.639 102.418 217.639C102.915 217.639 103.353 217.738 103.732 217.937C104.114 218.133 104.412 218.401 104.626 218.741C104.839 219.079 104.946 219.46 104.946 219.886C104.946 220.18 104.891 220.467 104.78 220.748C104.672 221.029 104.482 221.342 104.212 221.688C103.941 222.031 103.565 222.447 103.083 222.937L101.509 224.584V224.642H105.074V225.667H99.8616ZM106.54 225.667V224.801L109.219 222.024C109.505 221.723 109.741 221.458 109.927 221.231C110.115 221.002 110.256 220.784 110.348 220.578C110.441 220.372 110.488 220.153 110.488 219.921C110.488 219.658 110.426 219.431 110.302 219.24C110.178 219.047 110.009 218.898 109.795 218.795C109.581 218.69 109.34 218.637 109.072 218.637C108.789 218.637 108.541 218.695 108.33 218.811C108.119 218.927 107.956 219.091 107.843 219.302C107.729 219.513 107.673 219.761 107.673 220.044H106.532C106.532 219.562 106.643 219.141 106.864 218.78C107.086 218.419 107.39 218.139 107.777 217.941C108.164 217.74 108.603 217.639 109.096 217.639C109.593 217.639 110.031 217.738 110.41 217.937C110.792 218.133 111.09 218.401 111.303 218.741C111.517 219.079 111.624 219.46 111.624 219.886C111.624 220.18 111.569 220.467 111.458 220.748C111.35 221.029 111.16 221.342 110.89 221.688C110.619 222.031 110.243 222.447 109.761 222.937L108.187 224.584V224.642H111.752V225.667H106.54Z" fill="url(#paint37_linear_3051_34087)"/>
</g>
<g opacity="0.5">
<rect x="88.6665" y="239.556" width="34.2222" height="34.2222" fill="white" fill-opacity="0.01"/>
<rect x="88.6665" y="239.556" width="34.2222" height="34.2222" stroke="url(#paint38_linear_3051_34087)" stroke-width="0.777778"/>
<path d="M99.7394 259.889V259.023L102.419 256.246C102.705 255.945 102.941 255.681 103.127 255.454C103.315 255.224 103.455 255.006 103.548 254.8C103.641 254.594 103.687 254.375 103.687 254.143C103.687 253.88 103.625 253.653 103.502 253.462C103.378 253.269 103.209 253.121 102.995 253.018C102.781 252.912 102.54 252.859 102.272 252.859C101.989 252.859 101.741 252.917 101.53 253.033C101.318 253.149 101.156 253.313 101.042 253.524C100.929 253.736 100.872 253.983 100.872 254.267H99.7316C99.7316 253.785 99.8425 253.363 100.064 253.002C100.286 252.641 100.59 252.362 100.977 252.163C101.363 251.962 101.803 251.861 102.295 251.861C102.793 251.861 103.231 251.961 103.61 252.159C103.992 252.355 104.289 252.623 104.503 252.963C104.717 253.301 104.824 253.683 104.824 254.108C104.824 254.402 104.769 254.689 104.658 254.97C104.55 255.251 104.36 255.565 104.089 255.91C103.819 256.253 103.442 256.669 102.96 257.159L101.387 258.806V258.864H104.952V259.889H99.7394ZM109.051 251.861C109.404 251.864 109.752 251.928 110.095 252.055C110.437 252.181 110.747 252.387 111.023 252.673C111.301 252.96 111.523 253.346 111.688 253.833C111.855 254.318 111.94 254.921 111.943 255.643C111.943 256.337 111.873 256.954 111.734 257.495C111.595 258.034 111.395 258.489 111.135 258.86C110.877 259.232 110.564 259.514 110.195 259.707C109.827 259.9 109.411 259.997 108.95 259.997C108.478 259.997 108.059 259.904 107.693 259.719C107.327 259.533 107.03 259.277 106.8 258.949C106.571 258.619 106.428 258.24 106.371 257.812H107.55C107.628 258.153 107.785 258.429 108.022 258.64C108.262 258.849 108.571 258.953 108.95 258.953C109.53 258.953 109.982 258.7 110.307 258.195C110.632 257.687 110.796 256.978 110.798 256.068H110.737C110.602 256.29 110.435 256.481 110.234 256.641C110.035 256.801 109.812 256.924 109.565 257.012C109.317 257.1 109.053 257.143 108.772 257.143C108.316 257.143 107.901 257.031 107.527 256.807C107.153 256.583 106.856 256.275 106.634 255.883C106.412 255.491 106.301 255.044 106.301 254.541C106.301 254.041 106.415 253.587 106.642 253.18C106.871 252.773 107.191 252.45 107.601 252.213C108.013 251.974 108.496 251.856 109.051 251.861ZM109.054 252.867C108.753 252.867 108.481 252.942 108.239 253.091C107.999 253.238 107.809 253.438 107.67 253.69C107.531 253.94 107.461 254.219 107.461 254.526C107.461 254.832 107.528 255.111 107.662 255.361C107.799 255.608 107.985 255.806 108.219 255.952C108.456 256.097 108.727 256.169 109.031 256.169C109.258 256.169 109.469 256.125 109.665 256.038C109.861 255.95 110.033 255.829 110.18 255.674C110.327 255.517 110.441 255.339 110.524 255.14C110.606 254.942 110.648 254.733 110.648 254.514C110.648 254.223 110.578 253.952 110.439 253.702C110.302 253.452 110.114 253.251 109.874 253.099C109.634 252.944 109.361 252.867 109.054 252.867Z" fill="url(#paint39_linear_3051_34087)"/>
</g>
<g opacity="0.5">
<rect x="122.889" y="102.667" width="34.2222" height="34.2222" fill="white" fill-opacity="0.01"/>
<rect x="122.889" y="102.667" width="34.2222" height="34.2222" stroke="url(#paint40_linear_3051_34087)" stroke-width="0.777778"/>
<path d="M137.811 123V122.134L140.491 119.357C140.777 119.056 141.013 118.792 141.199 118.565C141.387 118.335 141.527 118.118 141.62 117.911C141.713 117.705 141.759 117.486 141.759 117.254C141.759 116.991 141.698 116.764 141.574 116.573C141.45 116.38 141.281 116.232 141.067 116.129C140.853 116.023 140.612 115.97 140.344 115.97C140.061 115.97 139.813 116.028 139.602 116.144C139.39 116.26 139.228 116.424 139.115 116.635C139.001 116.847 138.944 117.094 138.944 117.378H137.804C137.804 116.896 137.915 116.474 138.136 116.113C138.358 115.752 138.662 115.473 139.049 115.274C139.436 115.073 139.875 114.973 140.367 114.973C140.865 114.973 141.303 115.072 141.682 115.27C142.064 115.466 142.361 115.734 142.575 116.075C142.789 116.412 142.896 116.794 142.896 117.219C142.896 117.513 142.841 117.8 142.73 118.081C142.622 118.362 142.432 118.676 142.162 119.021C141.891 119.364 141.515 119.78 141.032 120.27L139.459 121.917V121.975H143.024V123H137.811Z" fill="url(#paint41_linear_3051_34087)"/>
</g>
<g opacity="0.5">
<rect x="122.889" y="136.889" width="34.2222" height="34.2222" fill="white" fill-opacity="0.01"/>
<rect x="122.889" y="136.889" width="34.2222" height="34.2222" stroke="url(#paint42_linear_3051_34087)" stroke-width="0.777778"/>
<path d="M140.322 149.195C140.676 149.197 141.024 149.262 141.366 149.388C141.709 149.514 142.019 149.721 142.295 150.007C142.573 150.293 142.795 150.68 142.96 151.167C143.127 151.651 143.212 152.255 143.215 152.976C143.215 153.67 143.145 154.287 143.006 154.829C142.867 155.367 142.667 155.822 142.407 156.194C142.149 156.565 141.836 156.847 141.467 157.04C141.098 157.234 140.683 157.33 140.222 157.33C139.75 157.33 139.331 157.238 138.965 157.052C138.599 156.866 138.301 156.61 138.072 156.283C137.843 155.953 137.699 155.574 137.643 155.146H138.822C138.899 155.486 139.057 155.762 139.294 155.973C139.534 156.182 139.843 156.286 140.222 156.286C140.802 156.286 141.254 156.034 141.579 155.529C141.904 155.021 142.068 154.312 142.07 153.402H142.008C141.874 153.624 141.707 153.814 141.506 153.974C141.307 154.134 141.084 154.258 140.837 154.345C140.589 154.433 140.325 154.477 140.044 154.477C139.588 154.477 139.173 154.365 138.799 154.14C138.425 153.916 138.127 153.608 137.906 153.216C137.684 152.824 137.573 152.377 137.573 151.874C137.573 151.374 137.687 150.921 137.913 150.513C138.143 150.106 138.463 149.784 138.872 149.547C139.285 149.307 139.768 149.19 140.322 149.195ZM140.326 150.2C140.025 150.2 139.753 150.275 139.51 150.424C139.271 150.571 139.081 150.771 138.942 151.024C138.803 151.274 138.733 151.552 138.733 151.859C138.733 152.166 138.8 152.444 138.934 152.694C139.071 152.942 139.257 153.139 139.491 153.286C139.728 153.43 139.999 153.502 140.303 153.502C140.53 153.502 140.741 153.459 140.937 153.371C141.133 153.283 141.305 153.162 141.452 153.007C141.598 152.85 141.713 152.672 141.796 152.474C141.878 152.275 141.919 152.066 141.919 151.847C141.919 151.556 141.85 151.285 141.711 151.035C141.574 150.785 141.386 150.584 141.146 150.432C140.906 150.277 140.633 150.2 140.326 150.2Z" fill="url(#paint43_linear_3051_34087)"/>
</g>
<rect x="121.333" y="169.556" width="37.3333" height="37.3333" fill="url(#paint44_linear_3051_34087)"/>
<rect x="121.333" y="169.556" width="37.3333" height="37.3333" stroke="url(#paint45_linear_3051_34087)" stroke-width="3.11111"/>
<path d="M136.39 181.758V195.333H133.519V184.482H133.44L130.331 186.431V183.885L133.692 181.758H136.39ZM144.826 195.519C144.128 195.515 143.454 195.397 142.805 195.168C142.159 194.938 141.58 194.564 141.068 194.047C140.555 193.53 140.149 192.845 139.848 191.992C139.552 191.14 139.404 190.092 139.404 188.85C139.408 187.71 139.539 186.692 139.795 185.795C140.056 184.893 140.427 184.128 140.909 183.501C141.395 182.873 141.976 182.396 142.652 182.069C143.328 181.738 144.086 181.572 144.926 181.572C145.832 181.572 146.632 181.749 147.325 182.102C148.019 182.451 148.576 182.926 148.996 183.527C149.42 184.128 149.676 184.802 149.765 185.549H146.934C146.824 185.076 146.592 184.705 146.238 184.436C145.885 184.166 145.447 184.031 144.926 184.031C144.042 184.031 143.37 184.416 142.911 185.185C142.455 185.954 142.223 186.999 142.215 188.32H142.307C142.511 187.918 142.785 187.575 143.129 187.293C143.479 187.005 143.874 186.787 144.316 186.636C144.762 186.482 145.233 186.404 145.728 186.404C146.532 186.404 147.248 186.594 147.876 186.974C148.503 187.35 148.998 187.867 149.36 188.526C149.723 189.184 149.904 189.938 149.904 190.786C149.904 191.705 149.69 192.523 149.261 193.239C148.837 193.955 148.242 194.516 147.478 194.922C146.718 195.324 145.834 195.523 144.826 195.519ZM144.813 193.265C145.255 193.265 145.651 193.159 146 192.947C146.349 192.735 146.623 192.448 146.822 192.085C147.021 191.723 147.12 191.316 147.12 190.866C147.12 190.415 147.021 190.01 146.822 189.652C146.627 189.295 146.358 189.009 146.013 188.797C145.668 188.585 145.275 188.479 144.833 188.479C144.502 188.479 144.194 188.541 143.912 188.665C143.633 188.789 143.388 188.961 143.176 189.182C142.968 189.403 142.805 189.659 142.685 189.951C142.566 190.238 142.506 190.545 142.506 190.872C142.506 191.31 142.606 191.71 142.805 192.072C143.008 192.434 143.282 192.724 143.627 192.94C143.976 193.157 144.371 193.265 144.813 193.265Z" fill="url(#paint46_linear_3051_34087)"/>
<g opacity="0.5">
<rect x="122.889" y="205.333" width="34.2222" height="34.2222" fill="white" fill-opacity="0.01"/>
<rect x="122.889" y="205.333" width="34.2222" height="34.2222" stroke="url(#paint47_linear_3051_34087)" stroke-width="0.777778"/>
<path d="M133.913 225.667V224.801L136.593 222.024C136.879 221.723 137.115 221.458 137.3 221.231C137.489 221.002 137.629 220.784 137.722 220.578C137.815 220.372 137.861 220.153 137.861 219.921C137.861 219.658 137.799 219.431 137.676 219.24C137.552 219.047 137.383 218.898 137.169 218.795C136.955 218.69 136.714 218.637 136.446 218.637C136.162 218.637 135.915 218.695 135.704 218.811C135.492 218.927 135.33 219.091 135.216 219.302C135.103 219.513 135.046 219.761 135.046 220.044H133.905C133.905 219.562 134.016 219.141 134.238 218.78C134.46 218.419 134.764 218.139 135.151 217.941C135.537 217.74 135.977 217.639 136.469 217.639C136.967 217.639 137.405 217.738 137.784 217.937C138.165 218.133 138.463 218.401 138.677 218.741C138.891 219.079 138.998 219.46 138.998 219.886C138.998 220.18 138.943 220.467 138.832 220.748C138.723 221.029 138.534 221.342 138.263 221.688C137.993 222.031 137.616 222.447 137.134 222.937L135.56 224.584V224.642H139.126V225.667H133.913ZM143.348 225.775C142.817 225.775 142.343 225.683 141.925 225.5C141.51 225.317 141.181 225.063 140.939 224.739C140.699 224.411 140.571 224.032 140.552 223.602H141.767C141.782 223.836 141.861 224.04 142.003 224.213C142.147 224.383 142.335 224.514 142.567 224.607C142.799 224.7 143.057 224.746 143.34 224.746C143.652 224.746 143.928 224.692 144.168 224.584C144.41 224.476 144.6 224.325 144.736 224.132C144.873 223.936 144.941 223.71 144.941 223.455C144.941 223.189 144.873 222.956 144.736 222.755C144.602 222.551 144.405 222.391 144.145 222.275C143.887 222.159 143.575 222.101 143.209 222.101H142.54V221.127H143.209C143.503 221.127 143.761 221.074 143.982 220.969C144.207 220.863 144.382 220.716 144.508 220.528C144.635 220.337 144.698 220.114 144.698 219.859C144.698 219.614 144.642 219.401 144.531 219.221C144.423 219.038 144.268 218.895 144.067 218.792C143.869 218.688 143.634 218.637 143.364 218.637C143.106 218.637 142.865 218.685 142.641 218.78C142.419 218.873 142.238 219.007 142.099 219.182C141.96 219.355 141.885 219.562 141.875 219.805H140.719C140.732 219.377 140.858 219 141.098 218.676C141.34 218.351 141.66 218.097 142.057 217.914C142.454 217.731 142.894 217.639 143.379 217.639C143.887 217.639 144.325 217.738 144.694 217.937C145.065 218.133 145.351 218.395 145.552 218.722C145.756 219.049 145.856 219.408 145.854 219.797C145.856 220.24 145.733 220.617 145.483 220.926C145.235 221.235 144.905 221.443 144.493 221.549V221.61C145.019 221.69 145.426 221.899 145.715 222.237C146.006 222.575 146.15 222.993 146.148 223.494C146.15 223.929 146.029 224.32 145.784 224.665C145.542 225.011 145.211 225.283 144.79 225.481C144.37 225.677 143.89 225.775 143.348 225.775Z" fill="url(#paint48_linear_3051_34087)"/>
</g>
<g opacity="0.5">
<rect x="122.889" y="239.556" width="34.2222" height="34.2222" fill="white" fill-opacity="0.01"/>
<rect x="122.889" y="239.556" width="34.2222" height="34.2222" stroke="url(#paint49_linear_3051_34087)" stroke-width="0.777778"/>
<path d="M136.995 259.997C136.464 259.997 135.989 259.906 135.572 259.723C135.157 259.54 134.828 259.286 134.586 258.961C134.346 258.633 134.217 258.255 134.199 257.824H135.413C135.429 258.059 135.507 258.262 135.649 258.435C135.793 258.605 135.982 258.737 136.214 258.829C136.446 258.922 136.703 258.969 136.987 258.969C137.299 258.969 137.575 258.914 137.815 258.806C138.057 258.698 138.246 258.547 138.383 258.354C138.52 258.158 138.588 257.932 138.588 257.677C138.588 257.412 138.52 257.178 138.383 256.977C138.249 256.774 138.052 256.614 137.791 256.498C137.534 256.382 137.222 256.324 136.856 256.324H136.187V255.349H136.856C137.149 255.349 137.407 255.296 137.629 255.191C137.853 255.085 138.028 254.938 138.155 254.75C138.281 254.559 138.344 254.336 138.344 254.081C138.344 253.836 138.289 253.623 138.178 253.443C138.07 253.26 137.915 253.117 137.714 253.014C137.515 252.911 137.281 252.859 137.01 252.859C136.752 252.859 136.511 252.907 136.287 253.002C136.065 253.095 135.885 253.229 135.746 253.404C135.607 253.577 135.532 253.785 135.521 254.027H134.365C134.378 253.599 134.505 253.223 134.744 252.898C134.987 252.573 135.306 252.319 135.703 252.136C136.1 251.953 136.541 251.861 137.026 251.861C137.534 251.861 137.972 251.961 138.34 252.159C138.712 252.355 138.998 252.617 139.199 252.944C139.402 253.272 139.503 253.63 139.5 254.019C139.503 254.462 139.379 254.839 139.129 255.148C138.882 255.458 138.552 255.665 138.139 255.771V255.833C138.665 255.913 139.073 256.121 139.361 256.459C139.653 256.797 139.797 257.216 139.794 257.716C139.797 258.151 139.676 258.542 139.431 258.887C139.189 259.233 138.857 259.505 138.437 259.703C138.017 259.899 137.536 259.997 136.995 259.997ZM144.013 260.02C143.402 260.018 142.88 259.857 142.447 259.537C142.014 259.217 141.683 258.752 141.453 258.141C141.224 257.53 141.109 256.794 141.109 255.933C141.109 255.075 141.224 254.341 141.453 253.733C141.685 253.125 142.018 252.661 142.451 252.341C142.886 252.021 143.407 251.861 144.013 251.861C144.619 251.861 145.138 252.023 145.571 252.345C146.004 252.664 146.336 253.128 146.565 253.737C146.797 254.343 146.913 255.075 146.913 255.933C146.913 256.797 146.798 257.534 146.569 258.145C146.339 258.753 146.008 259.219 145.575 259.541C145.142 259.861 144.621 260.02 144.013 260.02ZM144.013 258.988C144.549 258.988 144.968 258.726 145.27 258.203C145.574 257.68 145.726 256.923 145.726 255.933C145.726 255.276 145.656 254.72 145.517 254.267C145.381 253.81 145.183 253.465 144.926 253.23C144.67 252.993 144.366 252.875 144.013 252.875C143.479 252.875 143.06 253.137 142.756 253.663C142.452 254.189 142.299 254.946 142.296 255.933C142.296 256.593 142.364 257.151 142.501 257.607C142.64 258.061 142.837 258.405 143.093 258.64C143.348 258.872 143.655 258.988 144.013 258.988Z" fill="url(#paint50_linear_3051_34087)"/>
</g>
<g opacity="0.5">
<rect x="157.111" y="102.667" width="34.2222" height="34.2222" fill="white" fill-opacity="0.01"/>
<rect x="157.111" y="102.667" width="34.2222" height="34.2222" stroke="url(#paint51_linear_3051_34087)" stroke-width="0.777778"/>
<path d="M174.343 123.108C173.812 123.108 173.338 123.017 172.92 122.834C172.505 122.651 172.176 122.397 171.934 122.072C171.694 121.745 171.566 121.366 171.547 120.935H172.762C172.777 121.17 172.856 121.373 172.998 121.546C173.142 121.716 173.33 121.848 173.562 121.94C173.794 122.033 174.052 122.08 174.335 122.08C174.647 122.08 174.923 122.026 175.163 121.917C175.405 121.809 175.595 121.658 175.731 121.465C175.868 121.269 175.936 121.043 175.936 120.788C175.936 120.523 175.868 120.289 175.731 120.088C175.597 119.885 175.4 119.725 175.14 119.609C174.882 119.493 174.57 119.435 174.204 119.435H173.535V118.46H174.204C174.498 118.46 174.756 118.408 174.977 118.302C175.202 118.196 175.377 118.049 175.503 117.861C175.63 117.67 175.693 117.447 175.693 117.192C175.693 116.947 175.637 116.735 175.526 116.554C175.418 116.371 175.263 116.228 175.062 116.125C174.864 116.022 174.629 115.97 174.359 115.97C174.101 115.97 173.86 116.018 173.636 116.113C173.414 116.206 173.233 116.34 173.094 116.515C172.955 116.688 172.88 116.896 172.87 117.138H171.714C171.727 116.71 171.853 116.334 172.093 116.009C172.335 115.684 172.655 115.43 173.052 115.247C173.449 115.064 173.889 114.973 174.374 114.973C174.882 114.973 175.32 115.072 175.689 115.27C176.06 115.466 176.346 115.728 176.547 116.055C176.751 116.383 176.851 116.741 176.849 117.13C176.851 117.574 176.728 117.95 176.478 118.259C176.23 118.569 175.9 118.776 175.488 118.882V118.944C176.014 119.024 176.421 119.232 176.71 119.57C177.001 119.908 177.145 120.327 177.143 120.827C177.145 121.263 177.024 121.653 176.779 121.999C176.537 122.344 176.206 122.616 175.785 122.814C175.365 123.01 174.885 123.108 174.343 123.108Z" fill="url(#paint52_linear_3051_34087)"/>
</g>
<g opacity="0.5">
<rect x="157.111" y="136.889" width="34.2222" height="34.2222" fill="white" fill-opacity="0.01"/>
<rect x="157.111" y="136.889" width="34.2222" height="34.2222" stroke="url(#paint53_linear_3051_34087)" stroke-width="0.777778"/>
<path d="M172.178 149.303V157.222H170.98V150.502H170.933L169.039 151.739V150.595L171.015 149.303H172.178ZM177.078 157.354C176.467 157.351 175.945 157.19 175.512 156.87C175.079 156.551 174.747 156.085 174.518 155.474C174.288 154.863 174.174 154.127 174.174 153.266C174.174 152.408 174.288 151.675 174.518 151.066C174.75 150.458 175.082 149.994 175.516 149.674C175.951 149.355 176.472 149.195 177.078 149.195C177.683 149.195 178.203 149.356 178.636 149.678C179.069 149.998 179.4 150.462 179.63 151.07C179.862 151.676 179.978 152.408 179.978 153.266C179.978 154.13 179.863 154.867 179.634 155.478C179.404 156.087 179.073 156.552 178.64 156.874C178.207 157.194 177.686 157.354 177.078 157.354ZM177.078 156.321C177.614 156.321 178.033 156.06 178.334 155.536C178.639 155.013 178.791 154.256 178.791 153.266C178.791 152.609 178.721 152.054 178.582 151.6C178.445 151.144 178.248 150.798 177.99 150.564C177.735 150.326 177.431 150.208 177.078 150.208C176.544 150.208 176.125 150.471 175.821 150.997C175.517 151.523 175.363 152.279 175.361 153.266C175.361 153.926 175.429 154.485 175.566 154.941C175.705 155.395 175.902 155.739 176.157 155.973C176.413 156.205 176.719 156.321 177.078 156.321Z" fill="url(#paint54_linear_3051_34087)"/>
</g>
<g opacity="0.5">
<rect x="157.111" y="171.111" width="34.2222" height="34.2222" fill="white" fill-opacity="0.01"/>
<rect x="157.111" y="171.111" width="34.2222" height="34.2222" stroke="url(#paint55_linear_3051_34087)" stroke-width="0.777778"/>
<path d="M172.818 183.525V191.444H171.619V184.724H171.573L169.678 185.961V184.817L171.654 183.525H172.818ZM175.227 191.444L178.684 184.608V184.55H174.686V183.525H179.921V184.585L176.476 191.444H175.227Z" fill="url(#paint56_linear_3051_34087)"/>
</g>
<g opacity="0.5">
<rect x="157.111" y="205.333" width="34.2222" height="34.2222" fill="white" fill-opacity="0.01"/>
<rect x="157.111" y="205.333" width="34.2222" height="34.2222" stroke="url(#paint57_linear_3051_34087)" stroke-width="0.777778"/>
<path d="M168.168 225.667V224.801L170.848 222.024C171.134 221.723 171.37 221.458 171.556 221.231C171.744 221.002 171.884 220.784 171.977 220.578C172.07 220.372 172.116 220.153 172.116 219.921C172.116 219.658 172.054 219.431 171.931 219.24C171.807 219.047 171.638 218.898 171.424 218.795C171.21 218.69 170.969 218.637 170.701 218.637C170.417 218.637 170.17 218.695 169.959 218.811C169.747 218.927 169.585 219.091 169.471 219.302C169.358 219.513 169.301 219.761 169.301 220.044H168.16C168.16 219.562 168.271 219.141 168.493 218.78C168.715 218.419 169.019 218.139 169.406 217.941C169.792 217.74 170.232 217.639 170.724 217.639C171.222 217.639 171.66 217.738 172.039 217.937C172.42 218.133 172.718 218.401 172.932 218.741C173.146 219.079 173.253 219.46 173.253 219.886C173.253 220.18 173.198 220.467 173.087 220.748C172.979 221.029 172.789 221.342 172.518 221.688C172.248 222.031 171.871 222.447 171.389 222.937L169.815 224.584V224.642H173.381V225.667H168.168ZM174.51 224.12V223.153L177.932 217.747H178.694V219.17H178.21L175.763 223.045V223.107H180.453V224.12H174.51ZM178.264 225.667V223.826L178.272 223.385V217.747H179.405V225.667H178.264Z" fill="url(#paint58_linear_3051_34087)"/>
</g>
<g opacity="0.5">
<rect x="157.111" y="239.556" width="34.2222" height="34.2222" fill="white" fill-opacity="0.01"/>
<rect x="157.111" y="239.556" width="34.2222" height="34.2222" stroke="url(#paint59_linear_3051_34087)" stroke-width="0.777778"/>
<path d="M171.936 259.997C171.405 259.997 170.931 259.906 170.513 259.723C170.098 259.54 169.77 259.286 169.527 258.961C169.288 258.633 169.159 258.255 169.141 257.824H170.355C170.37 258.059 170.449 258.262 170.591 258.435C170.735 258.605 170.923 258.737 171.155 258.829C171.387 258.922 171.645 258.969 171.929 258.969C172.241 258.969 172.516 258.914 172.756 258.806C172.998 258.698 173.188 258.547 173.324 258.354C173.461 258.158 173.529 257.932 173.529 257.677C173.529 257.412 173.461 257.178 173.324 256.977C173.19 256.774 172.993 256.614 172.733 256.498C172.475 256.382 172.163 256.324 171.797 256.324H171.128V255.349H171.797C172.091 255.349 172.349 255.296 172.57 255.191C172.795 255.085 172.97 254.938 173.096 254.75C173.223 254.559 173.286 254.336 173.286 254.081C173.286 253.836 173.23 253.623 173.12 253.443C173.011 253.26 172.857 253.117 172.656 253.014C172.457 252.911 172.222 252.859 171.952 252.859C171.694 252.859 171.453 252.907 171.229 253.002C171.007 253.095 170.827 253.229 170.687 253.404C170.548 253.577 170.473 253.785 170.463 254.027H169.307C169.32 253.599 169.446 253.223 169.686 252.898C169.928 252.573 170.248 252.319 170.645 252.136C171.042 251.953 171.483 251.861 171.967 251.861C172.475 251.861 172.913 251.961 173.282 252.159C173.653 252.355 173.939 252.617 174.14 252.944C174.344 253.272 174.445 253.63 174.442 254.019C174.445 254.462 174.321 254.839 174.071 255.148C173.823 255.458 173.493 255.665 173.081 255.771V255.833C173.607 255.913 174.014 256.121 174.303 256.459C174.594 256.797 174.738 257.216 174.736 257.716C174.738 258.151 174.617 258.542 174.372 258.887C174.13 259.233 173.799 259.505 173.379 259.703C172.958 259.899 172.478 259.997 171.936 259.997ZM179.202 251.97V259.889H178.003V253.168H177.957L176.062 254.406V253.261L178.038 251.97H179.202Z" fill="url(#paint60_linear_3051_34087)"/>
</g>
<g opacity="0.5">
<rect x="191.333" y="102.667" width="34.2222" height="34.2222" fill="white" fill-opacity="0.01"/>
<rect x="191.333" y="102.667" width="34.2222" height="34.2222" stroke="url(#paint61_linear_3051_34087)" stroke-width="0.777778"/>
<path d="M205.589 121.453V120.487L209.011 115.081H209.773V116.504H209.289L206.842 120.378V120.44H211.532V121.453H205.589ZM209.344 123V121.159L209.351 120.719V115.081H210.484V123H209.344Z" fill="url(#paint62_linear_3051_34087)"/>
</g>
<g opacity="0.5">
<rect x="191.333" y="136.889" width="34.2222" height="34.2222" fill="white" fill-opacity="0.01"/>
<rect x="191.333" y="136.889" width="34.2222" height="34.2222" stroke="url(#paint63_linear_3051_34087)" stroke-width="0.777778"/>
<path d="M207.12 149.303V157.222H205.921V150.502H205.874L203.98 151.739V150.595L205.956 149.303H207.12ZM212.266 149.303V157.222H211.068V150.502H211.021L209.126 151.739V150.595L211.102 149.303H212.266Z" fill="url(#paint64_linear_3051_34087)"/>
</g>
<g opacity="0.5">
<rect x="191.333" y="171.111" width="34.2222" height="34.2222" fill="white" fill-opacity="0.01"/>
<rect x="191.333" y="171.111" width="34.2222" height="34.2222" stroke="url(#paint65_linear_3051_34087)" stroke-width="0.777778"/>
<path d="M206.475 183.525V191.444H205.276V184.724H205.23L203.335 185.961V184.817L205.311 183.525H206.475ZM211.293 191.553C210.739 191.553 210.249 191.457 209.824 191.267C209.401 191.076 209.07 190.813 208.83 190.478C208.59 190.143 208.472 189.761 208.474 189.333C208.472 188.998 208.54 188.69 208.679 188.409C208.821 188.125 209.013 187.89 209.255 187.701C209.498 187.511 209.768 187.389 210.067 187.338V187.292C209.673 187.196 209.357 186.985 209.12 186.657C208.883 186.33 208.766 185.954 208.768 185.528C208.766 185.124 208.872 184.763 209.089 184.446C209.308 184.126 209.608 183.875 209.99 183.692C210.372 183.508 210.806 183.417 211.293 183.417C211.775 183.417 212.206 183.51 212.585 183.695C212.966 183.878 213.266 184.13 213.486 184.449C213.705 184.766 213.816 185.126 213.818 185.528C213.816 185.954 213.694 186.33 213.455 186.657C213.215 186.985 212.903 187.196 212.519 187.292V187.338C212.815 187.389 213.082 187.511 213.319 187.701C213.559 187.89 213.75 188.125 213.892 188.409C214.036 188.69 214.109 188.998 214.112 189.333C214.109 189.761 213.988 190.143 213.749 190.478C213.509 190.813 213.176 191.076 212.751 191.267C212.328 191.457 211.842 191.553 211.293 191.553ZM211.293 190.574C211.62 190.574 211.904 190.52 212.144 190.412C212.384 190.301 212.569 190.148 212.701 189.952C212.832 189.753 212.899 189.521 212.902 189.256C212.899 188.98 212.827 188.736 212.685 188.525C212.546 188.314 212.356 188.147 212.117 188.026C211.877 187.905 211.602 187.844 211.293 187.844C210.981 187.844 210.704 187.905 210.462 188.026C210.219 188.147 210.029 188.314 209.889 188.525C209.75 188.736 209.682 188.98 209.685 189.256C209.682 189.521 209.745 189.753 209.874 189.952C210.005 190.148 210.192 190.301 210.435 190.412C210.677 190.52 210.963 190.574 211.293 190.574ZM211.293 186.889C211.556 186.889 211.789 186.837 211.993 186.731C212.197 186.625 212.356 186.478 212.472 186.29C212.591 186.102 212.652 185.881 212.654 185.629C212.652 185.381 212.592 185.165 212.476 184.979C212.363 184.794 212.204 184.65 212.001 184.55C211.797 184.447 211.561 184.395 211.293 184.395C211.02 184.395 210.78 184.447 210.574 184.55C210.37 184.65 210.212 184.794 210.098 184.979C209.985 185.165 209.929 185.381 209.932 185.629C209.929 185.881 209.986 186.102 210.102 186.29C210.218 186.478 210.378 186.625 210.582 186.731C210.788 186.837 211.025 186.889 211.293 186.889Z" fill="url(#paint66_linear_3051_34087)"/>
</g>
<g opacity="0.5">
<rect x="191.333" y="205.333" width="34.2222" height="34.2222" fill="white" fill-opacity="0.01"/>
<rect x="191.333" y="205.333" width="34.2222" height="34.2222" stroke="url(#paint67_linear_3051_34087)" stroke-width="0.777778"/>
<path d="M202.491 225.667V224.801L205.171 222.024C205.457 221.723 205.693 221.458 205.878 221.231C206.066 221.002 206.207 220.784 206.3 220.578C206.393 220.372 206.439 220.153 206.439 219.921C206.439 219.658 206.377 219.431 206.253 219.24C206.13 219.047 205.961 218.898 205.747 218.795C205.533 218.69 205.292 218.637 205.024 218.637C204.74 218.637 204.493 218.695 204.281 218.811C204.07 218.927 203.907 219.091 203.794 219.302C203.681 219.513 203.624 219.761 203.624 220.044H202.483C202.483 219.562 202.594 219.141 202.816 218.78C203.037 218.419 203.342 218.139 203.728 217.941C204.115 217.74 204.555 217.639 205.047 217.639C205.544 217.639 205.983 217.738 206.362 217.937C206.743 218.133 207.041 218.401 207.255 218.741C207.469 219.079 207.576 219.46 207.576 219.886C207.576 220.18 207.52 220.467 207.409 220.748C207.301 221.029 207.112 221.342 206.841 221.688C206.57 222.031 206.194 222.447 205.712 222.937L204.138 224.584V224.642H207.703V225.667H202.491ZM211.783 225.775C211.298 225.775 210.863 225.682 210.476 225.497C210.092 225.308 209.785 225.051 209.556 224.723C209.326 224.396 209.204 224.022 209.188 223.602H210.348C210.377 223.942 210.527 224.222 210.801 224.441C211.074 224.66 211.401 224.77 211.783 224.77C212.087 224.77 212.356 224.7 212.591 224.561C212.828 224.419 213.014 224.224 213.148 223.977C213.284 223.729 213.353 223.447 213.353 223.13C213.353 222.808 213.283 222.52 213.144 222.268C213.005 222.015 212.813 221.817 212.568 221.672C212.325 221.528 212.047 221.454 211.733 221.452C211.493 221.452 211.252 221.493 211.009 221.576C210.767 221.658 210.571 221.766 210.422 221.9L209.327 221.738L209.772 217.747H214.126V218.772H210.766L210.515 220.988H210.561C210.716 220.838 210.921 220.713 211.176 220.613C211.434 220.512 211.709 220.462 212.003 220.462C212.485 220.462 212.915 220.577 213.291 220.806C213.67 221.036 213.968 221.349 214.184 221.746C214.403 222.14 214.511 222.594 214.509 223.107C214.511 223.62 214.395 224.077 214.161 224.48C213.929 224.882 213.607 225.199 213.194 225.431C212.784 225.66 212.314 225.775 211.783 225.775Z" fill="url(#paint68_linear_3051_34087)"/>
</g>
<rect x="189.778" y="238" width="37.3333" height="37.3333" fill="url(#paint69_linear_3051_34087)"/>
<rect x="189.778" y="238" width="37.3333" height="37.3333" stroke="url(#paint70_linear_3051_34087)" stroke-width="3.11111"/>
<path d="M211.218 250.202V263.778H208.348V252.926H208.268L205.159 254.875V252.33L208.52 250.202H211.218Z" fill="url(#paint71_linear_3051_34087)"/>
<g opacity="0.5">
<rect x="225.556" y="102.667" width="34.2222" height="34.2222" fill="white" fill-opacity="0.01"/>
<rect x="225.556" y="102.667" width="34.2222" height="34.2222" stroke="url(#paint72_linear_3051_34087)" stroke-width="0.777778"/>
<path d="M243.055 123.108C242.571 123.108 242.135 123.015 241.748 122.83C241.364 122.642 241.057 122.384 240.828 122.057C240.598 121.729 240.476 121.355 240.461 120.935H241.621C241.649 121.275 241.8 121.555 242.073 121.774C242.346 121.993 242.674 122.103 243.055 122.103C243.359 122.103 243.629 122.033 243.863 121.894C244.101 121.752 244.286 121.558 244.42 121.31C244.557 121.063 244.625 120.78 244.625 120.463C244.625 120.141 244.555 119.854 244.416 119.601C244.277 119.348 244.085 119.15 243.84 119.006C243.598 118.861 243.319 118.788 243.005 118.785C242.765 118.785 242.524 118.826 242.282 118.909C242.04 118.991 241.844 119.1 241.694 119.234L240.6 119.071L241.044 115.081H245.398V116.106H242.038L241.787 118.321H241.833C241.988 118.172 242.193 118.047 242.448 117.946C242.706 117.846 242.982 117.795 243.276 117.795C243.758 117.795 244.187 117.91 244.563 118.139C244.942 118.369 245.24 118.682 245.456 119.079C245.676 119.473 245.784 119.927 245.781 120.44C245.784 120.953 245.668 121.411 245.433 121.813C245.201 122.215 244.879 122.532 244.467 122.764C244.057 122.994 243.586 123.108 243.055 123.108Z" fill="url(#paint73_linear_3051_34087)"/>
</g>
<g opacity="0.5">
<rect x="225.556" y="136.889" width="34.2222" height="34.2222" fill="white" fill-opacity="0.01"/>
<rect x="225.556" y="136.889" width="34.2222" height="34.2222" stroke="url(#paint74_linear_3051_34087)" stroke-width="0.777778"/>
<path d="M240.298 149.303V157.222H239.1V150.502H239.053L237.158 151.739V150.595L239.134 149.303H240.298ZM242.44 157.222V156.356L245.12 153.58C245.406 153.278 245.642 153.014 245.828 152.787C246.016 152.558 246.156 152.34 246.249 152.134C246.342 151.927 246.388 151.708 246.388 151.476C246.388 151.213 246.327 150.986 246.203 150.796C246.079 150.602 245.91 150.454 245.696 150.351C245.482 150.245 245.241 150.192 244.973 150.192C244.69 150.192 244.442 150.25 244.231 150.366C244.019 150.482 243.857 150.646 243.744 150.857C243.63 151.069 243.573 151.316 243.573 151.6H242.433C242.433 151.118 242.544 150.696 242.765 150.335C242.987 149.975 243.291 149.695 243.678 149.496C244.065 149.295 244.504 149.195 244.996 149.195C245.494 149.195 245.932 149.294 246.311 149.493C246.693 149.688 246.99 149.957 247.204 150.297C247.418 150.634 247.525 151.016 247.525 151.441C247.525 151.735 247.47 152.023 247.359 152.304C247.251 152.585 247.061 152.898 246.791 153.243C246.52 153.586 246.144 154.002 245.662 154.492L244.088 156.14V156.198H247.653V157.222H242.44Z" fill="url(#paint75_linear_3051_34087)"/>
</g>
<g opacity="0.5">
<rect x="225.556" y="171.111" width="34.2222" height="34.2222" fill="white" fill-opacity="0.01"/>
<rect x="225.556" y="171.111" width="34.2222" height="34.2222" stroke="url(#paint76_linear_3051_34087)" stroke-width="0.777778"/>
<path d="M240.676 183.525V191.444H239.477V184.724H239.431L237.536 185.961V184.817L239.512 183.525H240.676ZM245.451 183.417C245.805 183.42 246.153 183.484 246.496 183.61C246.838 183.737 247.148 183.943 247.424 184.229C247.702 184.515 247.924 184.902 248.089 185.389C248.256 185.874 248.341 186.477 248.344 187.199C248.344 187.892 248.274 188.51 248.135 189.051C247.996 189.59 247.796 190.045 247.536 190.416C247.278 190.787 246.965 191.069 246.596 191.263C246.227 191.456 245.812 191.553 245.351 191.553C244.879 191.553 244.46 191.46 244.094 191.274C243.728 191.089 243.43 190.832 243.201 190.505C242.972 190.175 242.828 189.796 242.772 189.368H243.951C244.028 189.708 244.186 189.984 244.423 190.195C244.663 190.404 244.972 190.509 245.351 190.509C245.931 190.509 246.383 190.256 246.708 189.751C247.033 189.243 247.197 188.534 247.199 187.624H247.137C247.003 187.846 246.836 188.037 246.635 188.196C246.436 188.356 246.213 188.48 245.966 188.568C245.718 188.655 245.454 188.699 245.173 188.699C244.717 188.699 244.302 188.587 243.928 188.363C243.554 188.138 243.256 187.83 243.035 187.438C242.813 187.047 242.702 186.599 242.702 186.097C242.702 185.597 242.816 185.143 243.042 184.736C243.272 184.328 243.592 184.006 244.001 183.769C244.414 183.529 244.897 183.412 245.451 183.417ZM245.455 184.422C245.154 184.422 244.882 184.497 244.639 184.647C244.4 184.794 244.21 184.993 244.071 185.246C243.932 185.496 243.862 185.774 243.862 186.081C243.862 186.388 243.929 186.666 244.063 186.916C244.2 187.164 244.386 187.361 244.62 187.508C244.857 187.652 245.128 187.725 245.432 187.725C245.659 187.725 245.87 187.681 246.066 187.593C246.262 187.505 246.434 187.384 246.581 187.23C246.728 187.072 246.842 186.895 246.925 186.696C247.007 186.498 247.048 186.289 247.048 186.07C247.048 185.778 246.979 185.508 246.84 185.258C246.703 185.008 246.515 184.806 246.275 184.654C246.035 184.5 245.762 184.422 245.455 184.422Z" fill="url(#paint77_linear_3051_34087)"/>
</g>
<g opacity="0.5">
<rect x="225.556" y="205.333" width="34.2222" height="34.2222" fill="white" fill-opacity="0.01"/>
<rect x="225.556" y="205.333" width="34.2222" height="34.2222" stroke="url(#paint78_linear_3051_34087)" stroke-width="0.777778"/>
<path d="M236.629 225.667V224.801L239.308 222.024C239.594 221.723 239.83 221.458 240.016 221.231C240.204 221.002 240.344 220.784 240.437 220.578C240.53 220.372 240.577 220.153 240.577 219.921C240.577 219.658 240.515 219.431 240.391 219.24C240.267 219.047 240.098 218.898 239.884 218.795C239.67 218.69 239.429 218.637 239.161 218.637C238.878 218.637 238.63 218.695 238.419 218.811C238.207 218.927 238.045 219.091 237.932 219.302C237.818 219.513 237.761 219.761 237.761 220.044H236.621C236.621 219.562 236.732 219.141 236.953 218.78C237.175 218.419 237.479 218.139 237.866 217.941C238.253 217.74 238.692 217.639 239.184 217.639C239.682 217.639 240.12 217.738 240.499 217.937C240.881 218.133 241.178 218.401 241.392 218.741C241.606 219.079 241.713 219.46 241.713 219.886C241.713 220.18 241.658 220.467 241.547 220.748C241.439 221.029 241.249 221.342 240.979 221.688C240.708 222.031 240.332 222.447 239.85 222.937L238.276 224.584V224.642H241.841V225.667H236.629ZM246.071 225.775C245.718 225.77 245.37 225.705 245.027 225.582C244.687 225.458 244.378 225.252 244.099 224.963C243.821 224.674 243.598 224.286 243.43 223.799C243.265 223.312 243.183 222.703 243.183 221.974C243.183 221.283 243.251 220.669 243.388 220.133C243.527 219.597 243.727 219.145 243.987 218.776C244.247 218.405 244.562 218.123 244.931 217.929C245.299 217.736 245.713 217.639 246.172 217.639C246.644 217.639 247.062 217.732 247.428 217.918C247.795 218.103 248.091 218.36 248.318 218.687C248.547 219.014 248.693 219.387 248.755 219.805H247.575C247.495 219.475 247.337 219.205 247.1 218.996C246.863 218.788 246.553 218.683 246.172 218.683C245.592 218.683 245.139 218.936 244.815 219.441C244.492 219.946 244.33 220.649 244.327 221.549H244.385C244.522 221.324 244.689 221.133 244.888 220.976C245.089 220.816 245.313 220.694 245.561 220.609C245.811 220.521 246.074 220.477 246.35 220.477C246.808 220.477 247.224 220.59 247.595 220.814C247.969 221.036 248.266 221.342 248.488 221.734C248.71 222.126 248.821 222.575 248.821 223.08C248.821 223.585 248.706 224.043 248.476 224.452C248.25 224.862 247.93 225.187 247.517 225.427C247.105 225.664 246.623 225.78 246.071 225.775ZM246.067 224.77C246.372 224.77 246.644 224.695 246.883 224.545C247.123 224.396 247.312 224.195 247.452 223.942C247.591 223.689 247.66 223.407 247.66 223.095C247.66 222.791 247.592 222.514 247.456 222.264C247.321 222.014 247.136 221.815 246.899 221.668C246.664 221.521 246.396 221.448 246.094 221.448C245.865 221.448 245.652 221.492 245.456 221.579C245.263 221.667 245.093 221.788 244.946 221.943C244.799 222.098 244.683 222.275 244.598 222.477C244.515 222.675 244.474 222.885 244.474 223.107C244.474 223.403 244.543 223.678 244.679 223.93C244.818 224.183 245.008 224.387 245.248 224.541C245.49 224.694 245.763 224.77 246.067 224.77Z" fill="url(#paint79_linear_3051_34087)"/>
</g>
<g opacity="0.5">
<rect x="225.556" y="239.556" width="34.2222" height="34.2222" fill="white" fill-opacity="0.01"/>
<rect x="225.556" y="239.556" width="34.2222" height="34.2222" stroke="url(#paint80_linear_3051_34087)" stroke-width="0.777778"/>
<path d="M240.478 259.889V259.023L243.158 256.246C243.444 255.945 243.68 255.681 243.866 255.454C244.054 255.224 244.194 255.006 244.287 254.8C244.38 254.594 244.426 254.375 244.426 254.143C244.426 253.88 244.365 253.653 244.241 253.462C244.117 253.269 243.948 253.121 243.734 253.018C243.52 252.912 243.279 252.859 243.011 252.859C242.728 252.859 242.48 252.917 242.269 253.033C242.057 253.149 241.895 253.313 241.782 253.524C241.668 253.736 241.611 253.983 241.611 254.267H240.471C240.471 253.785 240.582 253.363 240.803 253.002C241.025 252.641 241.329 252.362 241.716 252.163C242.102 251.962 242.542 251.861 243.034 251.861C243.532 251.861 243.97 251.961 244.349 252.159C244.731 252.355 245.028 252.623 245.242 252.963C245.456 253.301 245.563 253.683 245.563 254.108C245.563 254.402 245.508 254.689 245.397 254.97C245.289 255.251 245.099 255.565 244.829 255.91C244.558 256.253 244.182 256.669 243.699 257.159L242.126 258.806V258.864H245.691V259.889H240.478Z" fill="url(#paint81_linear_3051_34087)"/>
</g>
<rect x="124.444" y="62.2222" width="31.1111" height="31.1111" rx="15.5556" fill="url(#paint82_linear_3051_34087)"/>
<rect x="123.764" y="61.5417" width="32.4722" height="32.4722" rx="16.2361" stroke="white" stroke-opacity="0.65" stroke-width="1.36111"/>
<path d="M132.741 78.8148L136.889 82.963L147.259 72.5926" stroke="url(#paint83_linear_3051_34087)" stroke-width="3.11111" stroke-linecap="round" stroke-linejoin="round"/>
<defs>
<linearGradient id="paint0_linear_3051_34087" x1="140" y1="6.22223" x2="140" y2="149.333" gradientUnits="userSpaceOnUse">
<stop stop-color="white" stop-opacity="0.5"/>
<stop offset="1" stop-color="white" stop-opacity="0"/>
</linearGradient>
<linearGradient id="paint1_linear_3051_34087" x1="140" y1="6.22223" x2="140" y2="149.333" gradientUnits="userSpaceOnUse">
<stop stop-color="white" stop-opacity="0.5"/>
<stop offset="1" stop-color="white" stop-opacity="0"/>
</linearGradient>
<linearGradient id="paint2_linear_3051_34087" x1="140" y1="31.1111" x2="140" y2="124.444" gradientUnits="userSpaceOnUse">
<stop stop-color="white" stop-opacity="0.5"/>
<stop offset="1" stop-color="white" stop-opacity="0"/>
</linearGradient>
<linearGradient id="paint3_linear_3051_34087" x1="140" y1="31.1111" x2="140" y2="124.444" gradientUnits="userSpaceOnUse">
<stop stop-color="white" stop-opacity="0.5"/>
<stop offset="1" stop-color="white" stop-opacity="0"/>
</linearGradient>
<linearGradient id="paint4_linear_3051_34087" x1="140" y1="52.8889" x2="140" y2="102.667" gradientUnits="userSpaceOnUse">
<stop stop-color="white" stop-opacity="0.5"/>
<stop offset="1" stop-color="white" stop-opacity="0"/>
</linearGradient>
<linearGradient id="paint5_linear_3051_34087" x1="140" y1="52.8889" x2="140" y2="102.667" gradientUnits="userSpaceOnUse">
<stop stop-color="white" stop-opacity="0.5"/>
<stop offset="1" stop-color="white" stop-opacity="0"/>
</linearGradient>
<linearGradient id="paint6_linear_3051_34087" x1="140" y1="77.7778" x2="140" y2="280" gradientUnits="userSpaceOnUse">
<stop stop-color="white" stop-opacity="0.1"/>
<stop offset="1" stop-color="white" stop-opacity="0"/>
</linearGradient>
<linearGradient id="paint7_linear_3051_34087" x1="140" y1="77.7778" x2="140" y2="280" gradientUnits="userSpaceOnUse">
<stop stop-color="white" stop-opacity="0.25"/>
<stop offset="1" stop-color="white" stop-opacity="0"/>
</linearGradient>
<linearGradient id="paint8_linear_3051_34087" x1="140" y1="77.7778" x2="140" y2="102.667" gradientUnits="userSpaceOnUse">
<stop stop-color="white" stop-opacity="0.75"/>
<stop offset="1" stop-color="white" stop-opacity="0.5"/>
</linearGradient>
<linearGradient id="paint9_linear_3051_34087" x1="140" y1="77.7778" x2="140" y2="102.667" gradientUnits="userSpaceOnUse">
<stop stop-color="white" stop-opacity="0.4"/>
<stop offset="1" stop-color="white" stop-opacity="0.15"/>
</linearGradient>
<linearGradient id="paint10_linear_3051_34087" x1="37.3333" y1="102.667" x2="37.3333" y2="136.889" gradientUnits="userSpaceOnUse">
<stop stop-color="white" stop-opacity="0.15"/>
<stop offset="1" stop-color="white" stop-opacity="0.05"/>
</linearGradient>
<linearGradient id="paint11_linear_3051_34087" x1="37.8335" y1="112" x2="37.8335" y2="127" gradientUnits="userSpaceOnUse">
<stop stop-color="white" stop-opacity="0.5"/>
<stop offset="1" stop-color="white" stop-opacity="0"/>
</linearGradient>
<linearGradient id="paint12_linear_3051_34087" x1="37.3333" y1="136.889" x2="37.3333" y2="171.111" gradientUnits="userSpaceOnUse">
<stop stop-color="white" stop-opacity="0.15"/>
<stop offset="1" stop-color="white" stop-opacity="0.05"/>
</linearGradient>
<linearGradient id="paint13_linear_3051_34087" x1="37.7222" y1="146.222" x2="37.7222" y2="161.222" gradientUnits="userSpaceOnUse">
<stop stop-color="white" stop-opacity="0.5"/>
<stop offset="1" stop-color="white" stop-opacity="0"/>
</linearGradient>
<linearGradient id="paint14_linear_3051_34087" x1="37.3333" y1="171.111" x2="37.3333" y2="205.333" gradientUnits="userSpaceOnUse">
<stop stop-color="white" stop-opacity="0.15"/>
<stop offset="1" stop-color="white" stop-opacity="0.05"/>
</linearGradient>
<linearGradient id="paint15_linear_3051_34087" x1="37.6108" y1="180.444" x2="37.6108" y2="195.444" gradientUnits="userSpaceOnUse">
<stop stop-color="white" stop-opacity="0.5"/>
<stop offset="1" stop-color="white" stop-opacity="0"/>
</linearGradient>
<linearGradient id="paint16_linear_3051_34087" x1="37.3333" y1="205.333" x2="37.3333" y2="239.556" gradientUnits="userSpaceOnUse">
<stop stop-color="white" stop-opacity="0.15"/>
<stop offset="1" stop-color="white" stop-opacity="0.05"/>
</linearGradient>
<linearGradient id="paint17_linear_3051_34087" x1="37.3335" y1="214.667" x2="37.3335" y2="229.667" gradientUnits="userSpaceOnUse">
<stop stop-color="white" stop-opacity="0.5"/>
<stop offset="1" stop-color="white" stop-opacity="0"/>
</linearGradient>
<linearGradient id="paint18_linear_3051_34087" x1="37.3333" y1="239.556" x2="37.3333" y2="273.778" gradientUnits="userSpaceOnUse">
<stop stop-color="white" stop-opacity="0.15"/>
<stop offset="1" stop-color="white" stop-opacity="0.05"/>
</linearGradient>
<linearGradient id="paint19_linear_3051_34087" x1="37.6108" y1="248.889" x2="37.6108" y2="263.889" gradientUnits="userSpaceOnUse">
<stop stop-color="white" stop-opacity="0.5"/>
<stop offset="1" stop-color="white" stop-opacity="0"/>
</linearGradient>
<linearGradient id="paint20_linear_3051_34087" x1="71.5554" y1="102.667" x2="71.5554" y2="136.889" gradientUnits="userSpaceOnUse">
<stop stop-color="white" stop-opacity="0.15"/>
<stop offset="1" stop-color="white" stop-opacity="0.05"/>
</linearGradient>
<linearGradient id="paint21_linear_3051_34087" x1="71.833" y1="112" x2="71.833" y2="127" gradientUnits="userSpaceOnUse">
<stop stop-color="white" stop-opacity="0.5"/>
<stop offset="1" stop-color="white" stop-opacity="0"/>
</linearGradient>
<linearGradient id="paint22_linear_3051_34087" x1="71.5554" y1="136.889" x2="71.5554" y2="171.111" gradientUnits="userSpaceOnUse">
<stop stop-color="white" stop-opacity="0.15"/>
<stop offset="1" stop-color="white" stop-opacity="0.05"/>
</linearGradient>
<linearGradient id="paint23_linear_3051_34087" x1="71.9443" y1="146.222" x2="71.9443" y2="161.222" gradientUnits="userSpaceOnUse">
<stop stop-color="white" stop-opacity="0.5"/>
<stop offset="1" stop-color="white" stop-opacity="0"/>
</linearGradient>
<linearGradient id="paint24_linear_3051_34087" x1="71.5554" y1="171.111" x2="71.5554" y2="205.333" gradientUnits="userSpaceOnUse">
<stop stop-color="white" stop-opacity="0.15"/>
<stop offset="1" stop-color="white" stop-opacity="0.05"/>
</linearGradient>
<linearGradient id="paint25_linear_3051_34087" x1="71.833" y1="180.444" x2="71.833" y2="195.444" gradientUnits="userSpaceOnUse">
<stop stop-color="white" stop-opacity="0.5"/>
<stop offset="1" stop-color="white" stop-opacity="0"/>
</linearGradient>
<linearGradient id="paint26_linear_3051_34087" x1="71.5554" y1="205.333" x2="71.5554" y2="239.556" gradientUnits="userSpaceOnUse">
<stop stop-color="white" stop-opacity="0.15"/>
<stop offset="1" stop-color="white" stop-opacity="0.05"/>
</linearGradient>
<linearGradient id="paint27_linear_3051_34087" x1="71.333" y1="214.667" x2="71.333" y2="229.667" gradientUnits="userSpaceOnUse">
<stop stop-color="white" stop-opacity="0.5"/>
<stop offset="1" stop-color="white" stop-opacity="0"/>
</linearGradient>
<linearGradient id="paint28_linear_3051_34087" x1="71.5554" y1="239.556" x2="71.5554" y2="273.778" gradientUnits="userSpaceOnUse">
<stop stop-color="white" stop-opacity="0.15"/>
<stop offset="1" stop-color="white" stop-opacity="0.05"/>
</linearGradient>
<linearGradient id="paint29_linear_3051_34087" x1="71.5557" y1="248.889" x2="71.5557" y2="263.889" gradientUnits="userSpaceOnUse">
<stop stop-color="white" stop-opacity="0.5"/>
<stop offset="1" stop-color="white" stop-opacity="0"/>
</linearGradient>
<linearGradient id="paint30_linear_3051_34087" x1="105.778" y1="102.667" x2="105.778" y2="136.889" gradientUnits="userSpaceOnUse">
<stop stop-color="white" stop-opacity="0.15"/>
<stop offset="1" stop-color="white" stop-opacity="0.05"/>
</linearGradient>
<linearGradient id="paint31_linear_3051_34087" x1="106.444" y1="112" x2="106.444" y2="127" gradientUnits="userSpaceOnUse">
<stop stop-color="white" stop-opacity="0.5"/>
<stop offset="1" stop-color="white" stop-opacity="0"/>
</linearGradient>
<linearGradient id="paint32_linear_3051_34087" x1="105.778" y1="136.889" x2="105.778" y2="171.111" gradientUnits="userSpaceOnUse">
<stop stop-color="white" stop-opacity="0.15"/>
<stop offset="1" stop-color="white" stop-opacity="0.05"/>
</linearGradient>
<linearGradient id="paint33_linear_3051_34087" x1="106.167" y1="146.222" x2="106.167" y2="161.222" gradientUnits="userSpaceOnUse">
<stop stop-color="white" stop-opacity="0.5"/>
<stop offset="1" stop-color="white" stop-opacity="0"/>
</linearGradient>
<linearGradient id="paint34_linear_3051_34087" x1="105.778" y1="171.111" x2="105.778" y2="205.333" gradientUnits="userSpaceOnUse">
<stop stop-color="white" stop-opacity="0.15"/>
<stop offset="1" stop-color="white" stop-opacity="0.05"/>
</linearGradient>
<linearGradient id="paint35_linear_3051_34087" x1="105.555" y1="180.444" x2="105.555" y2="195.444" gradientUnits="userSpaceOnUse">
<stop stop-color="white" stop-opacity="0.5"/>
<stop offset="1" stop-color="white" stop-opacity="0"/>
</linearGradient>
<linearGradient id="paint36_linear_3051_34087" x1="105.778" y1="205.333" x2="105.778" y2="239.556" gradientUnits="userSpaceOnUse">
<stop stop-color="white" stop-opacity="0.15"/>
<stop offset="1" stop-color="white" stop-opacity="0.05"/>
</linearGradient>
<linearGradient id="paint37_linear_3051_34087" x1="105.778" y1="214.667" x2="105.778" y2="229.667" gradientUnits="userSpaceOnUse">
<stop stop-color="white" stop-opacity="0.5"/>
<stop offset="1" stop-color="white" stop-opacity="0"/>
</linearGradient>
<linearGradient id="paint38_linear_3051_34087" x1="105.778" y1="239.556" x2="105.778" y2="273.778" gradientUnits="userSpaceOnUse">
<stop stop-color="white" stop-opacity="0.15"/>
<stop offset="1" stop-color="white" stop-opacity="0.05"/>
</linearGradient>
<linearGradient id="paint39_linear_3051_34087" x1="105.778" y1="248.889" x2="105.778" y2="263.889" gradientUnits="userSpaceOnUse">
<stop stop-color="white" stop-opacity="0.5"/>
<stop offset="1" stop-color="white" stop-opacity="0"/>
</linearGradient>
<linearGradient id="paint40_linear_3051_34087" x1="140" y1="102.667" x2="140" y2="136.889" gradientUnits="userSpaceOnUse">
<stop stop-color="white" stop-opacity="0.15"/>
<stop offset="1" stop-color="white" stop-opacity="0.05"/>
</linearGradient>
<linearGradient id="paint41_linear_3051_34087" x1="140.389" y1="112" x2="140.389" y2="127" gradientUnits="userSpaceOnUse">
<stop stop-color="white" stop-opacity="0.5"/>
<stop offset="1" stop-color="white" stop-opacity="0"/>
</linearGradient>
<linearGradient id="paint42_linear_3051_34087" x1="140" y1="136.889" x2="140" y2="171.111" gradientUnits="userSpaceOnUse">
<stop stop-color="white" stop-opacity="0.15"/>
<stop offset="1" stop-color="white" stop-opacity="0.05"/>
</linearGradient>
<linearGradient id="paint43_linear_3051_34087" x1="140.389" y1="146.222" x2="140.389" y2="161.222" gradientUnits="userSpaceOnUse">
<stop stop-color="white" stop-opacity="0.5"/>
<stop offset="1" stop-color="white" stop-opacity="0"/>
</linearGradient>
<linearGradient id="paint44_linear_3051_34087" x1="140" y1="171.111" x2="140" y2="205.333" gradientUnits="userSpaceOnUse">
<stop stop-color="#FFFD6B"/>
<stop offset="1" stop-color="#D0CE45"/>
</linearGradient>
<linearGradient id="paint45_linear_3051_34087" x1="140" y1="171.111" x2="140" y2="205.333" gradientUnits="userSpaceOnUse">
<stop stop-color="white" stop-opacity="0.35"/>
<stop offset="1" stop-color="white" stop-opacity="0.25"/>
</linearGradient>
<linearGradient id="paint46_linear_3051_34087" x1="140.111" y1="177.333" x2="140.111" y2="199.333" gradientUnits="userSpaceOnUse">
<stop stop-color="#565510" stop-opacity="0.4"/>
<stop offset="1" stop-color="#565510" stop-opacity="0.65"/>
</linearGradient>
<linearGradient id="paint47_linear_3051_34087" x1="140" y1="205.333" x2="140" y2="239.556" gradientUnits="userSpaceOnUse">
<stop stop-color="white" stop-opacity="0.15"/>
<stop offset="1" stop-color="white" stop-opacity="0.05"/>
</linearGradient>
<linearGradient id="paint48_linear_3051_34087" x1="140" y1="214.667" x2="140" y2="229.667" gradientUnits="userSpaceOnUse">
<stop stop-color="white" stop-opacity="0.5"/>
<stop offset="1" stop-color="white" stop-opacity="0"/>
</linearGradient>
<linearGradient id="paint49_linear_3051_34087" x1="140" y1="239.556" x2="140" y2="273.778" gradientUnits="userSpaceOnUse">
<stop stop-color="white" stop-opacity="0.15"/>
<stop offset="1" stop-color="white" stop-opacity="0.05"/>
</linearGradient>
<linearGradient id="paint50_linear_3051_34087" x1="140.5" y1="248.889" x2="140.5" y2="263.889" gradientUnits="userSpaceOnUse">
<stop stop-color="white" stop-opacity="0.5"/>
<stop offset="1" stop-color="white" stop-opacity="0"/>
</linearGradient>
<linearGradient id="paint51_linear_3051_34087" x1="174.222" y1="102.667" x2="174.222" y2="136.889" gradientUnits="userSpaceOnUse">
<stop stop-color="white" stop-opacity="0.15"/>
<stop offset="1" stop-color="white" stop-opacity="0.05"/>
</linearGradient>
<linearGradient id="paint52_linear_3051_34087" x1="174.333" y1="112" x2="174.333" y2="127" gradientUnits="userSpaceOnUse">
<stop stop-color="white" stop-opacity="0.5"/>
<stop offset="1" stop-color="white" stop-opacity="0"/>
</linearGradient>
<linearGradient id="paint53_linear_3051_34087" x1="174.222" y1="136.889" x2="174.222" y2="171.111" gradientUnits="userSpaceOnUse">
<stop stop-color="white" stop-opacity="0.15"/>
<stop offset="1" stop-color="white" stop-opacity="0.05"/>
</linearGradient>
<linearGradient id="paint54_linear_3051_34087" x1="174.5" y1="146.222" x2="174.5" y2="161.222" gradientUnits="userSpaceOnUse">
<stop stop-color="white" stop-opacity="0.5"/>
<stop offset="1" stop-color="white" stop-opacity="0"/>
</linearGradient>
<linearGradient id="paint55_linear_3051_34087" x1="174.222" y1="171.111" x2="174.222" y2="205.333" gradientUnits="userSpaceOnUse">
<stop stop-color="white" stop-opacity="0.15"/>
<stop offset="1" stop-color="white" stop-opacity="0.05"/>
</linearGradient>
<linearGradient id="paint56_linear_3051_34087" x1="174.778" y1="180.444" x2="174.778" y2="195.444" gradientUnits="userSpaceOnUse">
<stop stop-color="white" stop-opacity="0.5"/>
<stop offset="1" stop-color="white" stop-opacity="0"/>
</linearGradient>
<linearGradient id="paint57_linear_3051_34087" x1="174.222" y1="205.333" x2="174.222" y2="239.556" gradientUnits="userSpaceOnUse">
<stop stop-color="white" stop-opacity="0.15"/>
<stop offset="1" stop-color="white" stop-opacity="0.05"/>
</linearGradient>
<linearGradient id="paint58_linear_3051_34087" x1="174.223" y1="214.667" x2="174.223" y2="229.667" gradientUnits="userSpaceOnUse">
<stop stop-color="white" stop-opacity="0.5"/>
<stop offset="1" stop-color="white" stop-opacity="0"/>
</linearGradient>
<linearGradient id="paint59_linear_3051_34087" x1="174.222" y1="239.556" x2="174.222" y2="273.778" gradientUnits="userSpaceOnUse">
<stop stop-color="white" stop-opacity="0.15"/>
<stop offset="1" stop-color="white" stop-opacity="0.05"/>
</linearGradient>
<linearGradient id="paint60_linear_3051_34087" x1="174.5" y1="248.889" x2="174.5" y2="263.889" gradientUnits="userSpaceOnUse">
<stop stop-color="white" stop-opacity="0.5"/>
<stop offset="1" stop-color="white" stop-opacity="0"/>
</linearGradient>
<linearGradient id="paint61_linear_3051_34087" x1="208.445" y1="102.667" x2="208.445" y2="136.889" gradientUnits="userSpaceOnUse">
<stop stop-color="white" stop-opacity="0.15"/>
<stop offset="1" stop-color="white" stop-opacity="0.05"/>
</linearGradient>
<linearGradient id="paint62_linear_3051_34087" x1="208.556" y1="112" x2="208.556" y2="127" gradientUnits="userSpaceOnUse">
<stop stop-color="white" stop-opacity="0.5"/>
<stop offset="1" stop-color="white" stop-opacity="0"/>
</linearGradient>
<linearGradient id="paint63_linear_3051_34087" x1="208.445" y1="136.889" x2="208.445" y2="171.111" gradientUnits="userSpaceOnUse">
<stop stop-color="white" stop-opacity="0.15"/>
<stop offset="1" stop-color="white" stop-opacity="0.05"/>
</linearGradient>
<linearGradient id="paint64_linear_3051_34087" x1="208.5" y1="146.222" x2="208.5" y2="161.222" gradientUnits="userSpaceOnUse">
<stop stop-color="white" stop-opacity="0.5"/>
<stop offset="1" stop-color="white" stop-opacity="0"/>
</linearGradient>
<linearGradient id="paint65_linear_3051_34087" x1="208.445" y1="171.111" x2="208.445" y2="205.333" gradientUnits="userSpaceOnUse">
<stop stop-color="white" stop-opacity="0.15"/>
<stop offset="1" stop-color="white" stop-opacity="0.05"/>
</linearGradient>
<linearGradient id="paint66_linear_3051_34087" x1="208.722" y1="180.444" x2="208.722" y2="195.444" gradientUnits="userSpaceOnUse">
<stop stop-color="white" stop-opacity="0.5"/>
<stop offset="1" stop-color="white" stop-opacity="0"/>
</linearGradient>
<linearGradient id="paint67_linear_3051_34087" x1="208.445" y1="205.333" x2="208.445" y2="239.556" gradientUnits="userSpaceOnUse">
<stop stop-color="white" stop-opacity="0.15"/>
<stop offset="1" stop-color="white" stop-opacity="0.05"/>
</linearGradient>
<linearGradient id="paint68_linear_3051_34087" x1="208.444" y1="214.667" x2="208.444" y2="229.667" gradientUnits="userSpaceOnUse">
<stop stop-color="white" stop-opacity="0.5"/>
<stop offset="1" stop-color="white" stop-opacity="0"/>
</linearGradient>
<linearGradient id="paint69_linear_3051_34087" x1="208.445" y1="239.556" x2="208.445" y2="273.778" gradientUnits="userSpaceOnUse">
<stop stop-color="#FFFD6B"/>
<stop offset="1" stop-color="#D0CE45"/>
</linearGradient>
<linearGradient id="paint70_linear_3051_34087" x1="208.445" y1="239.556" x2="208.445" y2="273.778" gradientUnits="userSpaceOnUse">
<stop stop-color="white" stop-opacity="0.35"/>
<stop offset="1" stop-color="white" stop-opacity="0.25"/>
</linearGradient>
<linearGradient id="paint71_linear_3051_34087" x1="208.778" y1="245.778" x2="208.778" y2="267.778" gradientUnits="userSpaceOnUse">
<stop stop-color="#565510" stop-opacity="0.4"/>
<stop offset="1" stop-color="#565510" stop-opacity="0.65"/>
</linearGradient>
<linearGradient id="paint72_linear_3051_34087" x1="242.667" y1="102.667" x2="242.667" y2="136.889" gradientUnits="userSpaceOnUse">
<stop stop-color="white" stop-opacity="0.15"/>
<stop offset="1" stop-color="white" stop-opacity="0.05"/>
</linearGradient>
<linearGradient id="paint73_linear_3051_34087" x1="243.056" y1="112" x2="243.056" y2="127" gradientUnits="userSpaceOnUse">
<stop stop-color="white" stop-opacity="0.5"/>
<stop offset="1" stop-color="white" stop-opacity="0"/>
</linearGradient>
<linearGradient id="paint74_linear_3051_34087" x1="242.667" y1="136.889" x2="242.667" y2="171.111" gradientUnits="userSpaceOnUse">
<stop stop-color="white" stop-opacity="0.15"/>
<stop offset="1" stop-color="white" stop-opacity="0.05"/>
</linearGradient>
<linearGradient id="paint75_linear_3051_34087" x1="242.444" y1="146.222" x2="242.444" y2="161.222" gradientUnits="userSpaceOnUse">
<stop stop-color="white" stop-opacity="0.5"/>
<stop offset="1" stop-color="white" stop-opacity="0"/>
</linearGradient>
<linearGradient id="paint76_linear_3051_34087" x1="242.667" y1="171.111" x2="242.667" y2="205.333" gradientUnits="userSpaceOnUse">
<stop stop-color="white" stop-opacity="0.15"/>
<stop offset="1" stop-color="white" stop-opacity="0.05"/>
</linearGradient>
<linearGradient id="paint77_linear_3051_34087" x1="242.944" y1="180.444" x2="242.944" y2="195.444" gradientUnits="userSpaceOnUse">
<stop stop-color="white" stop-opacity="0.5"/>
<stop offset="1" stop-color="white" stop-opacity="0"/>
</linearGradient>
<linearGradient id="paint78_linear_3051_34087" x1="242.667" y1="205.333" x2="242.667" y2="239.556" gradientUnits="userSpaceOnUse">
<stop stop-color="white" stop-opacity="0.15"/>
<stop offset="1" stop-color="white" stop-opacity="0.05"/>
</linearGradient>
<linearGradient id="paint79_linear_3051_34087" x1="242.667" y1="214.667" x2="242.667" y2="229.667" gradientUnits="userSpaceOnUse">
<stop stop-color="white" stop-opacity="0.5"/>
<stop offset="1" stop-color="white" stop-opacity="0"/>
</linearGradient>
<linearGradient id="paint80_linear_3051_34087" x1="242.667" y1="239.556" x2="242.667" y2="273.778" gradientUnits="userSpaceOnUse">
<stop stop-color="white" stop-opacity="0.15"/>
<stop offset="1" stop-color="white" stop-opacity="0.05"/>
</linearGradient>
<linearGradient id="paint81_linear_3051_34087" x1="243.056" y1="248.889" x2="243.056" y2="263.889" gradientUnits="userSpaceOnUse">
<stop stop-color="white" stop-opacity="0.5"/>
<stop offset="1" stop-color="white" stop-opacity="0"/>
</linearGradient>
<linearGradient id="paint82_linear_3051_34087" x1="140" y1="62.2222" x2="140" y2="93.3333" gradientUnits="userSpaceOnUse">
<stop stop-color="#FFFD6B"/>
<stop offset="1" stop-color="#D0CE45"/>
</linearGradient>
<linearGradient id="paint83_linear_3051_34087" x1="140" y1="72.5926" x2="140" y2="82.963" gradientUnits="userSpaceOnUse">
<stop stop-color="#565510" stop-opacity="0.5"/>
<stop offset="1" stop-color="#565510" stop-opacity="0.75"/>
</linearGradient>
</defs>
</svg>
