<svg width="360" height="360" viewBox="0 0 360 360" fill="none" xmlns="http://www.w3.org/2000/svg">
<rect x="16" y="127" width="155" height="217" rx="3.1" fill="#F7F6D4"/>
<rect opacity="0.35" x="34.5994" y="230.075" width="100.75" height="4.65" rx="2.325" fill="#CCCA3C"/>
<rect opacity="0.35" x="34.5994" y="248.675" width="100.75" height="4.65" rx="2.325" fill="#CCCA3C"/>
<rect opacity="0.35" x="34.5994" y="151.8" width="117.8" height="4.65" rx="2.325" fill="#CCCA3C"/>
<rect opacity="0.35" x="34.5994" y="179.7" width="72.85" height="4.65" rx="2.325" fill="#CCCA3C"/>
<rect opacity="0.35" x="34.5994" y="239.375" width="72.85" height="4.65" rx="2.325" fill="#CCCA3C"/>
<rect opacity="0.35" x="34.5994" y="267.275" width="72.85" height="4.65" rx="2.325" fill="#CCCA3C"/>
<rect opacity="0.35" x="34.5994" y="257.975" width="72.85" height="4.65" rx="2.325" fill="#CCCA3C"/>
<rect opacity="0.35" x="34.5994" y="196.75" width="83.7" height="4.65" rx="2.325" fill="#CCCA3C"/>
<rect opacity="0.35" x="34.5994" y="206.05" width="100.75" height="4.65" rx="2.325" fill="#CCCA3C"/>
<rect opacity="0.35" x="34.5994" y="215.35" width="46.5" height="4.65" rx="2.325" fill="#CCCA3C"/>
<rect opacity="0.35" x="34.5994" y="161.1" width="100.75" height="4.65" rx="2.325" fill="#CCCA3C"/>
<rect x="189" y="127" width="155" height="217" rx="3.1" fill="#F7F6D4"/>
<rect opacity="0.35" x="207.599" y="230.075" width="100.75" height="4.65" rx="2.325" fill="#CCCA3C"/>
<rect opacity="0.35" x="207.599" y="248.675" width="100.75" height="4.65" rx="2.325" fill="#CCCA3C"/>
<rect opacity="0.35" x="207.599" y="151.8" width="117.8" height="4.65" rx="2.325" fill="#CCCA3C"/>
<rect opacity="0.35" x="207.599" y="179.7" width="72.85" height="4.65" rx="2.325" fill="#CCCA3C"/>
<rect opacity="0.35" x="207.599" y="239.375" width="72.85" height="4.65" rx="2.325" fill="#CCCA3C"/>
<rect opacity="0.35" x="207.599" y="267.275" width="72.85" height="4.65" rx="2.325" fill="#CCCA3C"/>
<rect opacity="0.35" x="207.599" y="257.975" width="72.85" height="4.65" rx="2.325" fill="#CCCA3C"/>
<rect opacity="0.35" x="207.599" y="196.75" width="83.7" height="4.65" rx="2.325" fill="#CCCA3C"/>
<rect opacity="0.35" x="207.599" y="206.05" width="100.75" height="4.65" rx="2.325" fill="#CCCA3C"/>
<rect opacity="0.35" x="207.599" y="215.35" width="46.5" height="4.65" rx="2.325" fill="#CCCA3C"/>
<rect opacity="0.35" x="207.599" y="161.1" width="100.75" height="4.65" rx="2.325" fill="#CCCA3C"/>
<g filter="url(#filter0_d_3009_23841)">
<rect x="80" y="64" width="200" height="280" rx="4" fill="url(#paint0_linear_3009_23841)"/>
<rect x="80.375" y="64.375" width="199.25" height="279.25" rx="3.625" stroke="url(#paint1_linear_3009_23841)" stroke-opacity="0.25" stroke-width="0.75"/>
</g>
<rect x="104" y="197" width="130" height="6" rx="3" fill="black" fill-opacity="0.08"/>
<rect x="104.325" y="197.325" width="129.35" height="5.35" rx="2.675" stroke="url(#paint2_linear_3009_23841)" stroke-opacity="0.25" stroke-width="0.65"/>
<rect x="104" y="221" width="130" height="6" rx="3" fill="black" fill-opacity="0.08"/>
<rect x="104.325" y="221.325" width="129.35" height="5.35" rx="2.675" stroke="url(#paint3_linear_3009_23841)" stroke-opacity="0.25" stroke-width="0.65"/>
<rect x="104" y="96" width="152" height="6" rx="3" fill="black" fill-opacity="0.08"/>
<rect x="104.325" y="96.325" width="151.35" height="5.35" rx="2.675" stroke="url(#paint4_linear_3009_23841)" stroke-opacity="0.25" stroke-width="0.65"/>
<rect x="104" y="132" width="94" height="6" rx="3" fill="black" fill-opacity="0.08"/>
<rect x="104.325" y="132.325" width="93.35" height="5.35" rx="2.675" stroke="url(#paint5_linear_3009_23841)" stroke-opacity="0.25" stroke-width="0.65"/>
<rect x="104" y="209" width="94" height="6" rx="3" fill="black" fill-opacity="0.08"/>
<rect x="104.325" y="209.325" width="93.35" height="5.35" rx="2.675" stroke="url(#paint6_linear_3009_23841)" stroke-opacity="0.25" stroke-width="0.65"/>
<rect x="104" y="245" width="94" height="6" rx="3" fill="black" fill-opacity="0.08"/>
<rect x="104.325" y="245.325" width="93.35" height="5.35" rx="2.675" stroke="url(#paint7_linear_3009_23841)" stroke-opacity="0.25" stroke-width="0.65"/>
<rect x="104" y="233" width="94" height="6" rx="3" fill="black" fill-opacity="0.08"/>
<rect x="104.325" y="233.325" width="93.35" height="5.35" rx="2.675" stroke="url(#paint8_linear_3009_23841)" stroke-opacity="0.25" stroke-width="0.65"/>
<rect x="104" y="154" width="108" height="6" rx="3" fill="black" fill-opacity="0.08"/>
<rect x="104.325" y="154.325" width="107.35" height="5.35" rx="2.675" stroke="url(#paint9_linear_3009_23841)" stroke-opacity="0.25" stroke-width="0.65"/>
<rect x="104" y="166" width="130" height="6" rx="3" fill="black" fill-opacity="0.08"/>
<rect x="104.325" y="166.325" width="129.35" height="5.35" rx="2.675" stroke="url(#paint10_linear_3009_23841)" stroke-opacity="0.25" stroke-width="0.65"/>
<rect x="104" y="178" width="60" height="6" rx="3" fill="black" fill-opacity="0.08"/>
<rect x="104.325" y="178.325" width="59.35" height="5.35" rx="2.675" stroke="url(#paint11_linear_3009_23841)" stroke-opacity="0.25" stroke-width="0.65"/>
<rect x="104" y="108" width="130" height="6" rx="3" fill="black" fill-opacity="0.08"/>
<rect x="104.325" y="108.325" width="129.35" height="5.35" rx="2.675" stroke="url(#paint12_linear_3009_23841)" stroke-opacity="0.25" stroke-width="0.65"/>
<g filter="url(#filter1_d_3009_23841)">
<rect x="132" y="16" width="96" height="96" rx="48" fill="url(#paint13_linear_3009_23841)" shape-rendering="crispEdges"/>
<rect x="130.5" y="14.5" width="99" height="99" rx="49.5" stroke="white" stroke-width="3" shape-rendering="crispEdges"/>
<path fill-rule="evenodd" clip-rule="evenodd" d="M157.6 51.2C157.6 45.898 161.898 41.6 167.2 41.6H199.2C200.412 41.6 201.52 42.2848 202.062 43.3689C202.604 44.453 202.487 45.7503 201.76 46.72L193.6 57.6L201.76 68.48C202.487 69.4496 202.604 70.747 202.062 71.8311C201.52 72.9152 200.412 73.6 199.2 73.6H167.2C165.433 73.6 164 75.0327 164 76.8V86.4C164 88.1673 162.567 89.6 160.8 89.6C159.033 89.6 157.6 88.1673 157.6 86.4V51.2Z" fill="url(#paint14_linear_3009_23841)"/>
</g>
<defs>
<filter id="filter0_d_3009_23841" x="76" y="63" width="208" height="288" filterUnits="userSpaceOnUse" color-interpolation-filters="sRGB">
<feFlood flood-opacity="0" result="BackgroundImageFix"/>
<feColorMatrix in="SourceAlpha" type="matrix" values="0 0 0 0 0 0 0 0 0 0 0 0 0 0 0 0 0 0 127 0" result="hardAlpha"/>
<feOffset dy="3"/>
<feGaussianBlur stdDeviation="2"/>
<feComposite in2="hardAlpha" operator="out"/>
<feColorMatrix type="matrix" values="0 0 0 0 0 0 0 0 0 0 0 0 0 0 0 0 0 0 0.12 0"/>
<feBlend mode="normal" in2="BackgroundImageFix" result="effect1_dropShadow_3009_23841"/>
<feBlend mode="normal" in="SourceGraphic" in2="effect1_dropShadow_3009_23841" result="shape"/>
</filter>
<filter id="filter1_d_3009_23841" x="126" y="13" width="108" height="108" filterUnits="userSpaceOnUse" color-interpolation-filters="sRGB">
<feFlood flood-opacity="0" result="BackgroundImageFix"/>
<feColorMatrix in="SourceAlpha" type="matrix" values="0 0 0 0 0 0 0 0 0 0 0 0 0 0 0 0 0 0 127 0" result="hardAlpha"/>
<feOffset dy="3"/>
<feGaussianBlur stdDeviation="1.5"/>
<feComposite in2="hardAlpha" operator="out"/>
<feColorMatrix type="matrix" values="0 0 0 0 0 0 0 0 0 0 0 0 0 0 0 0 0 0 0.15 0"/>
<feBlend mode="normal" in2="BackgroundImageFix" result="effect1_dropShadow_3009_23841"/>
<feBlend mode="normal" in="SourceGraphic" in2="effect1_dropShadow_3009_23841" result="shape"/>
</filter>
<linearGradient id="paint0_linear_3009_23841" x1="180" y1="64" x2="180" y2="344" gradientUnits="userSpaceOnUse">
<stop stop-color="#FAFAFA"/>
<stop offset="1" stop-color="#EDEDED"/>
</linearGradient>
<linearGradient id="paint1_linear_3009_23841" x1="180" y1="64" x2="180" y2="344" gradientUnits="userSpaceOnUse">
<stop stop-opacity="0.25"/>
<stop offset="1" stop-opacity="0"/>
</linearGradient>
<linearGradient id="paint2_linear_3009_23841" x1="169" y1="197" x2="169" y2="203" gradientUnits="userSpaceOnUse">
<stop stop-opacity="0.5"/>
<stop offset="1" stop-opacity="0.05"/>
</linearGradient>
<linearGradient id="paint3_linear_3009_23841" x1="169" y1="221" x2="169" y2="227" gradientUnits="userSpaceOnUse">
<stop stop-opacity="0.5"/>
<stop offset="1" stop-opacity="0.05"/>
</linearGradient>
<linearGradient id="paint4_linear_3009_23841" x1="180" y1="96" x2="180" y2="102" gradientUnits="userSpaceOnUse">
<stop stop-opacity="0.5"/>
<stop offset="1" stop-opacity="0.05"/>
</linearGradient>
<linearGradient id="paint5_linear_3009_23841" x1="151" y1="132" x2="151" y2="138" gradientUnits="userSpaceOnUse">
<stop stop-opacity="0.5"/>
<stop offset="1" stop-opacity="0.05"/>
</linearGradient>
<linearGradient id="paint6_linear_3009_23841" x1="151" y1="209" x2="151" y2="215" gradientUnits="userSpaceOnUse">
<stop stop-opacity="0.5"/>
<stop offset="1" stop-opacity="0.05"/>
</linearGradient>
<linearGradient id="paint7_linear_3009_23841" x1="151" y1="245" x2="151" y2="251" gradientUnits="userSpaceOnUse">
<stop stop-opacity="0.5"/>
<stop offset="1" stop-opacity="0.05"/>
</linearGradient>
<linearGradient id="paint8_linear_3009_23841" x1="151" y1="233" x2="151" y2="239" gradientUnits="userSpaceOnUse">
<stop stop-opacity="0.5"/>
<stop offset="1" stop-opacity="0.05"/>
</linearGradient>
<linearGradient id="paint9_linear_3009_23841" x1="158" y1="154" x2="158" y2="160" gradientUnits="userSpaceOnUse">
<stop stop-opacity="0.5"/>
<stop offset="1" stop-opacity="0.05"/>
</linearGradient>
<linearGradient id="paint10_linear_3009_23841" x1="169" y1="166" x2="169" y2="172" gradientUnits="userSpaceOnUse">
<stop stop-opacity="0.5"/>
<stop offset="1" stop-opacity="0.05"/>
</linearGradient>
<linearGradient id="paint11_linear_3009_23841" x1="134" y1="178" x2="134" y2="184" gradientUnits="userSpaceOnUse">
<stop stop-opacity="0.5"/>
<stop offset="1" stop-opacity="0.05"/>
</linearGradient>
<linearGradient id="paint12_linear_3009_23841" x1="169" y1="108" x2="169" y2="114" gradientUnits="userSpaceOnUse">
<stop stop-opacity="0.5"/>
<stop offset="1" stop-opacity="0.05"/>
</linearGradient>
<linearGradient id="paint13_linear_3009_23841" x1="180" y1="16" x2="180" y2="112" gradientUnits="userSpaceOnUse">
<stop stop-color="#727272"/>
<stop offset="1" stop-color="#393939"/>
</linearGradient>
<linearGradient id="paint14_linear_3009_23841" x1="180" y1="41.6" x2="180" y2="89.6" gradientUnits="userSpaceOnUse">
<stop stop-color="#FFFD6B"/>
<stop offset="1" stop-color="#A7A526"/>
</linearGradient>
</defs>
</svg>
